<svg width="207" height="202" viewBox="0 0 207 202" fill="none" xmlns="http://www.w3.org/2000/svg">
<path d="M27.612 97.846H50.492V99.77H27.612V97.846ZM29.458 91.424H48.724V93.348H29.458V91.424ZM37.934 87.186H39.988V111.08H37.934V87.186ZM37.44 98.834L39.104 99.536C38.4973 100.576 37.778 101.59 36.946 102.578C36.114 103.566 35.2213 104.502 34.268 105.386C33.332 106.253 32.3527 107.05 31.33 107.778C30.3247 108.489 29.3193 109.104 28.314 109.624C28.1927 109.468 28.0453 109.286 27.872 109.078C27.716 108.87 27.5513 108.671 27.378 108.48C27.2047 108.272 27.04 108.107 26.884 107.986C27.872 107.535 28.8687 106.981 29.874 106.322C30.8967 105.663 31.876 104.935 32.812 104.138C33.748 103.323 34.606 102.465 35.386 101.564C36.1833 100.663 36.868 99.7527 37.44 98.834ZM40.482 98.834C41.054 99.7527 41.7387 100.663 42.536 101.564C43.3507 102.448 44.226 103.306 45.162 104.138C46.098 104.953 47.0773 105.689 48.1 106.348C49.1227 106.989 50.128 107.527 51.116 107.96C50.9773 108.099 50.8127 108.263 50.622 108.454C50.4487 108.645 50.2753 108.844 50.102 109.052C49.946 109.26 49.8073 109.459 49.686 109.65C48.698 109.13 47.6927 108.506 46.67 107.778C45.6473 107.05 44.6593 106.244 43.706 105.36C42.7527 104.476 41.86 103.54 41.028 102.552C40.2133 101.564 39.494 100.559 38.87 99.536L40.482 98.834ZM64.376 88.512H75.92V90.228H64.376V88.512ZM65.39 102.526H77.428V104.268H65.39V102.526ZM63.7 108.558H78.572V110.3H63.7V108.558ZM75.374 88.512H75.738L76.128 88.434L77.428 89.006C76.7347 90.9993 75.7553 92.7153 74.49 94.154C73.242 95.5927 71.7947 96.7973 70.148 97.768C68.5187 98.7387 66.7853 99.5273 64.948 100.134C64.8267 99.874 64.6533 99.588 64.428 99.276C64.22 98.964 64.0207 98.704 63.83 98.496C65.5287 98.028 67.1407 97.3607 68.666 96.494C70.2087 95.61 71.5607 94.5353 72.722 93.27C73.9007 91.9873 74.7847 90.514 75.374 88.85V88.512ZM67.756 90.02C68.692 92.1347 70.122 93.92 72.046 95.376C73.9873 96.832 76.2667 97.8547 78.884 98.444C78.6933 98.6347 78.4767 98.8947 78.234 99.224C78.0087 99.536 77.8267 99.8133 77.688 100.056C74.9667 99.3453 72.6093 98.1927 70.616 96.598C68.64 94.986 67.1147 92.984 66.04 90.592L67.756 90.02ZM70.356 98.756H72.28V109.65H70.356V98.756ZM58.63 87.16L60.346 87.862C60.0167 88.4687 59.67 89.1187 59.306 89.812C58.942 90.5053 58.5693 91.1727 58.188 91.814C57.824 92.4553 57.4687 93.01 57.122 93.478L55.796 92.88C56.1253 92.3773 56.4633 91.7967 56.81 91.138C57.1567 90.462 57.4947 89.7773 57.824 89.084C58.1533 88.3733 58.422 87.732 58.63 87.16ZM61.568 90.124L63.206 90.878C62.6167 91.866 61.958 92.9147 61.23 94.024C60.5193 95.1333 59.8 96.1993 59.072 97.222C58.344 98.2447 57.6507 99.146 56.992 99.926L55.796 99.25C56.2813 98.6607 56.784 97.9933 57.304 97.248C57.8413 96.4853 58.3613 95.6967 58.864 94.882C59.384 94.05 59.8693 93.2267 60.32 92.412C60.788 91.58 61.204 90.8173 61.568 90.124ZM54.548 92.646L55.536 91.346C56.0213 91.7447 56.5067 92.1953 56.992 92.698C57.4947 93.1833 57.954 93.6687 58.37 94.154C58.786 94.622 59.1067 95.0467 59.332 95.428L58.266 96.91C58.0407 96.5113 57.72 96.0607 57.304 95.558C56.9053 95.038 56.4633 94.5267 55.978 94.024C55.4927 93.5213 55.016 93.062 54.548 92.646ZM60.632 96.182L62.01 95.61C62.374 96.1647 62.7207 96.7713 63.05 97.43C63.3793 98.0713 63.6653 98.704 63.908 99.328C64.168 99.9347 64.3587 100.481 64.48 100.966L62.998 101.616C62.894 101.131 62.712 100.576 62.452 99.952C62.2093 99.328 61.932 98.6867 61.62 98.028C61.308 97.352 60.9787 96.7367 60.632 96.182ZM54.444 98.808C55.588 98.7733 56.9313 98.7213 58.474 98.652C60.0167 98.5827 61.6113 98.5133 63.258 98.444L63.232 100.03C61.6893 100.134 60.164 100.238 58.656 100.342C57.148 100.429 55.8047 100.515 54.626 100.602L54.444 98.808ZM61.308 102.292L62.738 101.85C63.0847 102.578 63.414 103.393 63.726 104.294C64.0553 105.178 64.2807 105.941 64.402 106.582L62.92 107.102C62.7987 106.443 62.582 105.672 62.27 104.788C61.9753 103.887 61.6547 103.055 61.308 102.292ZM55.926 102.032L57.59 102.318C57.4167 103.549 57.174 104.762 56.862 105.958C56.55 107.137 56.186 108.142 55.77 108.974C55.6487 108.887 55.4927 108.801 55.302 108.714C55.1287 108.627 54.938 108.541 54.73 108.454C54.5393 108.35 54.366 108.272 54.21 108.22C54.6607 107.423 55.016 106.478 55.276 105.386C55.5533 104.277 55.77 103.159 55.926 102.032ZM58.708 99.536H60.45V111.132H58.708V99.536ZM95.342 98.86V102.292H103.48V98.86H95.342ZM93.678 97.352H105.222V103.8H93.678V97.352ZM99.294 88.928C98.878 89.6733 98.3493 90.436 97.708 91.216C97.084 91.996 96.3733 92.75 95.576 93.478C94.796 94.206 93.9813 94.8387 93.132 95.376C93.028 95.1507 92.8807 94.8907 92.69 94.596C92.4993 94.284 92.3173 94.0327 92.144 93.842C93.0107 93.3393 93.834 92.724 94.614 91.996C95.4113 91.268 96.1307 90.488 96.772 89.656C97.4307 88.8067 97.9507 87.9833 98.332 87.186H100.1C100.637 88.0353 101.253 88.8673 101.946 89.682C102.639 90.4793 103.385 91.2073 104.182 91.866C104.997 92.5247 105.794 93.062 106.574 93.478C106.401 93.686 106.219 93.9547 106.028 94.284C105.837 94.596 105.681 94.882 105.56 95.142C104.78 94.6393 104 94.0587 103.22 93.4C102.44 92.724 101.703 92.0047 101.01 91.242C100.334 90.462 99.762 89.6907 99.294 88.928ZM98.488 94.414H100.256V99.744C100.256 100.784 100.178 101.824 100.022 102.864C99.866 103.887 99.554 104.892 99.086 105.88C98.6353 106.868 97.9593 107.804 97.058 108.688C96.1567 109.555 94.9347 110.352 93.392 111.08C93.3227 110.959 93.21 110.811 93.054 110.638C92.9153 110.465 92.768 110.291 92.612 110.118C92.4733 109.945 92.3347 109.806 92.196 109.702C93.6173 109.061 94.744 108.35 95.576 107.57C96.4253 106.773 97.058 105.949 97.474 105.1C97.89 104.233 98.1587 103.349 98.28 102.448C98.4187 101.529 98.488 100.628 98.488 99.744V94.414ZM100.594 102.864C101.062 104.389 101.79 105.741 102.778 106.92C103.766 108.081 104.971 108.939 106.392 109.494C106.253 109.615 106.106 109.763 105.95 109.936C105.794 110.127 105.638 110.317 105.482 110.508C105.343 110.699 105.222 110.881 105.118 111.054C103.61 110.343 102.353 109.312 101.348 107.96C100.343 106.591 99.58 105.022 99.06 103.254L100.594 102.864ZM95.368 93.686H103.454V95.246H95.368V93.686ZM84.37 92.152H92.144V93.712H84.37V92.152ZM84.37 96.052H92.144V97.612H84.37V96.052ZM83.434 100.03H92.144V101.616H83.434V100.03ZM87.646 89.136H89.258V100.888H87.646V89.136ZM88.634 102.994L89.544 102.656C89.856 103.193 90.1507 103.774 90.428 104.398C90.7227 105.022 90.9307 105.559 91.052 106.01L90.064 106.426C89.9427 105.941 89.7433 105.386 89.466 104.762C89.206 104.121 88.9287 103.531 88.634 102.994ZM86.918 103.41L87.906 103.228C88.166 103.887 88.4 104.606 88.608 105.386C88.816 106.166 88.946 106.833 88.998 107.388L87.932 107.648C87.88 107.076 87.7587 106.4 87.568 105.62C87.3947 104.823 87.178 104.086 86.918 103.41ZM85.072 103.644L86.06 103.514C86.216 104.277 86.3287 105.109 86.398 106.01C86.4673 106.894 86.4933 107.657 86.476 108.298L85.41 108.454C85.4447 107.795 85.4273 107.024 85.358 106.14C85.2887 105.256 85.1933 104.424 85.072 103.644ZM83.226 103.228L84.448 103.436C84.4133 104.216 84.344 104.996 84.24 105.776C84.1533 106.539 84.006 107.258 83.798 107.934C83.6073 108.593 83.3387 109.165 82.992 109.65L81.9 109.026C82.212 108.575 82.4547 108.047 82.628 107.44C82.8187 106.816 82.9573 106.14 83.044 105.412C83.1307 104.684 83.1913 103.956 83.226 103.228ZM83.434 88.252H92.716V89.89H85.098V101.044H83.434V88.252ZM91.286 100.03H92.95C92.95 100.03 92.95 100.125 92.95 100.316C92.95 100.507 92.9413 100.663 92.924 100.784C92.8373 102.933 92.742 104.667 92.638 105.984C92.534 107.284 92.4127 108.272 92.274 108.948C92.1353 109.607 91.9533 110.066 91.728 110.326C91.5373 110.569 91.3293 110.733 91.104 110.82C90.896 110.924 90.6447 110.985 90.35 111.002C90.09 111.054 89.7433 111.071 89.31 111.054C88.894 111.054 88.4607 111.045 88.01 111.028C87.9927 110.785 87.9493 110.508 87.88 110.196C87.8107 109.901 87.7067 109.65 87.568 109.442C88.0187 109.477 88.426 109.503 88.79 109.52C89.154 109.537 89.4227 109.546 89.596 109.546C89.7693 109.546 89.908 109.529 90.012 109.494C90.116 109.459 90.22 109.381 90.324 109.26C90.4627 109.069 90.584 108.671 90.688 108.064C90.8093 107.457 90.922 106.53 91.026 105.282C91.13 104.034 91.2167 102.379 91.286 100.316V100.03ZM110.497 93.866C110.926 93.8507 111.317 93.8353 111.67 93.82C112.038 93.7893 112.329 93.7663 112.544 93.751C112.912 93.705 113.441 93.6513 114.131 93.59C114.836 93.5133 115.641 93.4367 116.546 93.36C117.451 93.268 118.424 93.176 119.467 93.084C120.51 92.992 121.56 92.9 122.618 92.808C123.461 92.7313 124.259 92.67 125.01 92.624C125.761 92.5627 126.459 92.5167 127.103 92.486C127.747 92.44 128.322 92.4093 128.828 92.394V94.234C128.399 94.234 127.908 94.2417 127.356 94.257C126.804 94.2723 126.26 94.303 125.723 94.349C125.186 94.395 124.719 94.4793 124.32 94.602C123.507 94.8627 122.771 95.2613 122.112 95.798C121.468 96.3193 120.916 96.925 120.456 97.615C119.996 98.305 119.643 99.018 119.398 99.754C119.168 100.49 119.053 101.203 119.053 101.893C119.053 102.782 119.206 103.564 119.513 104.239C119.82 104.898 120.234 105.458 120.755 105.918C121.292 106.378 121.897 106.754 122.572 107.045C123.247 107.336 123.96 107.559 124.711 107.712C125.478 107.85 126.237 107.927 126.988 107.942L126.321 109.851C125.462 109.82 124.604 109.698 123.745 109.483C122.886 109.284 122.066 108.992 121.284 108.609C120.502 108.21 119.804 107.712 119.191 107.114C118.578 106.516 118.095 105.818 117.742 105.021C117.389 104.224 117.213 103.311 117.213 102.284C117.213 101.088 117.42 99.984 117.834 98.972C118.263 97.9447 118.808 97.0477 119.467 96.281C120.126 95.5143 120.809 94.924 121.514 94.51C121.023 94.5713 120.41 94.6403 119.674 94.717C118.953 94.7937 118.179 94.878 117.351 94.97C116.523 95.0467 115.687 95.1387 114.844 95.246C114.016 95.3533 113.242 95.4607 112.521 95.568C111.8 95.66 111.195 95.7597 110.704 95.867L110.497 93.866ZM125.516 97.063C125.685 97.3083 125.884 97.6227 126.114 98.006C126.359 98.374 126.597 98.7573 126.827 99.156C127.057 99.5393 127.249 99.9073 127.402 100.26L126.229 100.812C125.968 100.245 125.677 99.685 125.355 99.133C125.033 98.5657 124.696 98.0443 124.343 97.569L125.516 97.063ZM128.023 96.097C128.207 96.3423 128.422 96.649 128.667 97.017C128.912 97.385 129.15 97.7683 129.38 98.167C129.625 98.5503 129.84 98.9183 130.024 99.271L128.828 99.846C128.552 99.2787 128.245 98.719 127.908 98.167C127.586 97.615 127.249 97.1013 126.896 96.626L128.023 96.097ZM143.249 90.922C143.172 91.2287 143.111 91.5123 143.065 91.773C143.034 92.0183 142.996 92.2713 142.95 92.532C142.889 92.9613 142.812 93.498 142.72 94.142C142.643 94.786 142.551 95.4913 142.444 96.258C142.352 97.0247 142.252 97.8143 142.145 98.627C142.053 99.4397 141.961 100.229 141.869 100.996C141.792 101.763 141.731 102.46 141.685 103.089C141.639 103.718 141.616 104.239 141.616 104.653C141.616 105.772 141.93 106.654 142.559 107.298C143.203 107.942 144.177 108.264 145.48 108.264C146.661 108.264 147.673 108.103 148.516 107.781C149.375 107.459 150.034 107.007 150.494 106.424C150.969 105.826 151.207 105.136 151.207 104.354C151.207 103.587 151 102.798 150.586 101.985C150.172 101.157 149.543 100.383 148.7 99.662L150.724 99.248C151.506 100.122 152.089 100.981 152.472 101.824C152.871 102.652 153.07 103.564 153.07 104.561C153.07 105.696 152.748 106.677 152.104 107.505C151.475 108.333 150.594 108.962 149.459 109.391C148.324 109.836 146.998 110.058 145.48 110.058C144.437 110.058 143.487 109.889 142.628 109.552C141.785 109.23 141.11 108.693 140.604 107.942C140.098 107.191 139.845 106.186 139.845 104.929C139.845 104.438 139.876 103.794 139.937 102.997C140.014 102.2 140.106 101.333 140.213 100.398C140.336 99.4473 140.458 98.4813 140.581 97.5C140.719 96.5033 140.834 95.568 140.926 94.694C141.033 93.82 141.11 93.061 141.156 92.417C141.202 92.0183 141.225 91.704 141.225 91.474C141.225 91.2287 141.21 90.9987 141.179 90.784L143.249 90.922ZM135.866 93.981C136.525 94.1803 137.246 94.349 138.028 94.487C138.81 94.625 139.6 94.7323 140.397 94.809C141.194 94.8703 141.93 94.901 142.605 94.901C143.494 94.901 144.33 94.878 145.112 94.832C145.909 94.786 146.638 94.7093 147.297 94.602L147.251 96.327C146.515 96.3883 145.787 96.442 145.066 96.488C144.345 96.5187 143.517 96.534 142.582 96.534C141.907 96.534 141.171 96.5033 140.374 96.442C139.577 96.3653 138.779 96.258 137.982 96.12C137.185 95.982 136.449 95.8287 135.774 95.66L135.866 93.981ZM135.314 99.685C136.05 99.9457 136.824 100.153 137.637 100.306C138.465 100.444 139.278 100.544 140.075 100.605C140.872 100.666 141.631 100.697 142.352 100.697C143.134 100.697 143.924 100.682 144.721 100.651C145.534 100.605 146.339 100.521 147.136 100.398L147.09 102.146C146.339 102.238 145.595 102.299 144.859 102.33C144.123 102.361 143.364 102.376 142.582 102.376C141.34 102.376 140.06 102.299 138.741 102.146C137.438 101.993 136.265 101.763 135.222 101.456L135.314 99.685ZM168.181 103.434L167.721 94.51L167.675 91.796H170.205L170.159 94.51L169.699 103.434H168.181ZM168.94 109.115C168.526 109.115 168.173 108.977 167.882 108.701C167.606 108.425 167.468 108.057 167.468 107.597C167.468 107.137 167.614 106.769 167.905 106.493C168.196 106.202 168.541 106.056 168.94 106.056C169.339 106.056 169.684 106.202 169.975 106.493C170.266 106.769 170.412 107.137 170.412 107.597C170.412 108.057 170.266 108.425 169.975 108.701C169.684 108.977 169.339 109.115 168.94 109.115Z" fill="white"/>
<path d="M171 171.007C153.085 188.921 128.336 200 101 200C46.3238 200 2 155.676 2 101C2 46.3238 46.3238 2 101 2C155.676 2 200 46.3238 200 101C200 116.409 196.48 130.996 190.199 144" stroke="white" stroke-width="3" stroke-linejoin="round"/>
<path d="M170 145L205 173" stroke="white" stroke-width="4"/>
</svg>
