<svg width="1480" height="567" viewBox="0 0 1480 567" fill="none" xmlns="http://www.w3.org/2000/svg">
<g clip-path="url(#clip0_385_3462)">
<path fill-rule="evenodd" clip-rule="evenodd" d="M269.754 1.03062C342.994 8.72312 382.961 80.6432 429.255 138.137C476.187 196.425 552.939 254.042 531.21 325.746C509.806 396.381 412.176 393.023 343.789 420.175C285.878 443.169 232.697 484.987 172.743 468.075C99.5243 447.419 30.6677 398.755 8.7151 325.651C-14.7116 247.638 11.1032 162.973 62.0853 99.5729C112.686 36.6475 189.637 -7.38423 269.754 1.03062Z" fill="#FFE2CC"/>
<path d="M1263.23 503.809C1305.02 508.683 1343.18 484.534 1384.29 487.451C1419.85 490.011 1457.39 506.89 1479.67 537.548C1423.65 508.537 1369.36 553.283 1315.86 561.348C1256.74 570.271 1215.92 521.206 1160.21 510.812C1126.47 504.512 1094.55 497.879 1062.27 482.256C1029.83 466.575 982.57 441.125 964.086 408.259C947.83 379.389 949.324 340.631 945.91 309.567C939.197 248.461 876.029 132.734 927.009 81.6204C958.133 174.975 1004.73 152.674 1082.88 149.125C1114.86 147.688 1139.06 153.928 1169.13 165.012C1202.51 177.333 1212.27 191.081 1240.57 211.965C1263.45 228.845 1289.92 225.123 1313.81 243.15C1342.77 264.978 1353.42 295.463 1364.75 328.115C1379.21 369.769 1390.53 455.786 1428.06 475.564C1358.55 454.782 1319.69 382.269 1300.33 316.436C1294.08 368.37 1322.05 423.411 1342.21 466.822C1305.59 464.287 1260.56 409.737 1241.61 379.729C1222.82 349.946 1214.87 314.333 1194.29 286.021C1192.05 326.685 1217.57 371.023 1230.18 409.432C1207.68 399.315 1201.21 378.476 1183.74 362.192C1166.6 346.189 1147.26 333.976 1129.8 316.009C1099.48 284.801 1066.15 260.204 1025.45 246.055C1070.08 290.769 1140.37 335.091 1175.49 387.022C1131.03 392.787 1093.78 384.432 1052.6 366.369C1080.26 410.657 1171.06 412.508 1216.82 421.878C1241.24 426.877 1263.02 433.266 1231.21 450.278C1207.31 463.032 1169.98 451.179 1143.94 459.61C1178.23 472.564 1218.94 467.453 1253.57 461.643C1285.94 456.206 1297.45 460.658 1325.41 478.271C1307.6 490.381 1284.44 500.472 1263.19 503.763L1263.23 503.809Z" fill="#FFE2CC"/>
</g>
<defs>
<clipPath id="clip0_385_3462">
<rect width="1478" height="567" fill="white"/>
</clipPath>
</defs>
</svg>
