<svg width="1245" height="844" viewBox="0 0 1245 844" fill="none" xmlns="http://www.w3.org/2000/svg">
<g clip-path="url(#clip0_209_6975)">
<path d="M-269.049 -212.413C-276.706 -222.244 -277.56 -235.058 -278.274 -246.129C-278.776 -253.885 -282.702 -272.122 -294.995 -270.691C-306.816 -269.329 -301.714 -249.669 -298.008 -241.936C-292.459 -230.358 -283.108 -223.201 -273.536 -215.874L-273.534 -215.873C-272.04 -214.729 -270.541 -213.582 -269.049 -212.413Z" fill="#FFE2CC"/>
<path d="M-269.049 -212.413C-266.563 -209.22 -263.359 -206.342 -259.209 -203.94C-262.342 -207.01 -265.675 -209.766 -269.049 -212.413Z" fill="#FFE2CC"/>
<path d="M-8.59714 -3.64493C-0.406232 -12.4137 11.8837 -14.0664 22.5096 -15.4653C29.9601 -16.448 46.9658 -21.7161 43.4068 -34.8201C39.9751 -47.4236 21.7919 -40.8123 14.9297 -36.3914C4.67632 -29.7863 -0.61121 -19.3519 -6.02315 -8.67189C-6.87153 -6.99765 -7.72301 -5.31742 -8.59714 -3.64493Z" fill="#FFE2CC"/>
<path d="M-8.59714 -3.64493C-11.2612 -0.792924 -13.4916 2.81185 -15.0901 7.40549C-12.6598 3.86755 -10.5707 0.131111 -8.59714 -3.64493Z" fill="#FFE2CC"/>
<path d="M-30.6201 19.3657C-25.4347 8.97127 -26.5894 -1.94935 -27.5987 -11.3796C-28.3052 -17.9815 -27.5883 -34.3193 -16.7137 -36.6764C-6.24792 -38.947 -7.78389 -21.0839 -9.8474 -13.5689C-12.9452 -2.33482 -19.9975 6.31224 -27.2175 15.1648L-27.2214 15.1697L-27.2281 15.1778C-28.3595 16.5651 -29.495 17.9575 -30.6201 19.3657Z" fill="#FFE2CC"/>
<path d="M-37.91 29.2669C-34.6616 26.0683 -32.3058 22.7448 -30.6201 19.3657C-33.1595 22.5442 -35.6453 25.8035 -37.91 29.2669Z" fill="#FFE2CC"/>
<path d="M-58.721 10.4958C-55.3933 20.2219 -51.5714 31.5045 -54.7646 43.9593C-56.7691 48.0173 -58.6967 52.1455 -60.3376 56.4288C-57.5721 52.1578 -55.7997 47.997 -54.7646 43.9593C-53.8763 42.1611 -52.9729 40.3767 -52.0727 38.5987L-52.0657 38.5849L-52.0616 38.5769L-52.0576 38.5689C-46.3005 27.1987 -40.6764 16.0911 -39.9592 3.3211C-39.4726 -5.22556 -42.0277 -24.5689 -52.8532 -19.31C-64.1048 -13.8282 -61.0405 3.67997 -58.721 10.4958Z" fill="#FFE2CC"/>
<path d="M146.289 141.656C147.945 139.858 149.628 138.031 151.311 136.054C146.932 141.708 144.165 149.656 141.611 156.991C140.982 158.797 140.366 160.567 139.741 162.255C138.305 166.158 136.335 170.094 134.37 174.02C131.885 178.983 129.409 183.931 128.03 188.773C133.39 185.038 139.331 180.801 144.008 175.56C145.415 173.981 146.886 171.902 148.411 169.749L148.411 169.748C151.45 165.456 154.698 160.868 158.057 159.357C155.429 171.384 146.912 179.248 138.596 186.926C133.957 191.21 129.381 195.436 125.924 200.295C151.241 189.723 181.725 165.89 189.546 133.728C189.066 133.9 188.442 133.966 187.881 134.026L187.88 134.026C187.445 134.073 187.048 134.115 186.785 134.199C187.391 130.404 188.372 126.791 189.358 123.155C190.702 118.203 192.057 113.209 192.492 107.66C192.576 106.615 192.661 105.559 192.747 104.496C193.399 96.4173 194.087 87.894 194.152 80.0774C190.285 82.5183 186.211 83.6534 182.17 84.7792C176.12 86.4646 170.145 88.1293 165.053 94.1238C150.843 79.7238 133.683 119.685 128.851 133.224C124.887 125.983 122.89 122.389 117.595 133.473C112.681 143.754 111.595 156.122 110.593 167.538C110.494 168.667 110.396 169.785 110.295 170.892C109.299 181.88 108.087 193.331 104.308 203.734C100.431 214.388 93.1238 221.106 85.5257 228.093C85.1188 228.467 84.7111 228.842 84.303 229.218C100.462 215.955 112.913 204.935 122.041 184.312C123.159 181.785 124.244 179.234 125.33 176.682C128.183 169.974 131.04 163.258 134.521 156.942C137.981 150.674 142.047 146.26 146.285 141.66L146.289 141.656Z" fill="#FFE2CC"/>
<path d="M254.923 152.603C244.877 162.02 230.282 167.203 218.265 170.226C211.46 171.937 204.722 174.161 197.972 176.39C193.569 177.843 189.161 179.298 184.724 180.614C199.798 174.374 208.916 158.252 217.917 142.336L217.918 142.333L217.919 142.331L217.922 142.327C220.041 138.579 222.155 134.843 224.338 131.249C229.632 122.527 238.141 108.959 248.504 111.546C256.374 113.52 254.859 120.142 253.119 127.747C253.045 128.071 252.97 128.396 252.896 128.723C269.726 119.447 263.26 144.843 254.934 152.626L254.923 152.603Z" fill="#FFE2CC"/>
<path d="M176.116 182.945C179.194 182.516 182.053 181.72 184.724 180.614C181.869 181.461 179.001 182.25 176.116 182.945Z" fill="#FFE2CC"/>
<path d="M-189.007 119.3C-191.041 126.561 -200.12 166.789 -194.128 171.776L-194.143 171.771C-202.002 165.227 -206.375 154.033 -207.519 142.582C-206.907 150.167 -207.652 161.972 -208.997 169.711C-218.473 162.853 -219.09 149.337 -219.652 137.041C-219.816 133.465 -219.974 129.992 -220.345 126.816C-223.079 135.576 -222.743 142.554 -222.388 149.908C-222.196 153.911 -221.997 158.026 -222.286 162.6C-222.93 172.718 -225.382 174.448 -232.627 171.51C-246.186 166.019 -252.311 147.423 -254.931 132.04C-257.946 114.345 -254.486 99.4286 -250.684 83.0384C-249.977 79.991 -249.258 76.8927 -248.567 73.716C-243.513 50.4659 -238.006 35.3013 -216.519 28.877C-211.704 27.4394 -206.538 24.9914 -201.213 22.4684C-187.41 15.9274 -172.543 8.88204 -159.958 17.63C-155.689 20.587 -154.812 25.0445 -153.894 29.7077C-153.223 33.1176 -152.53 36.6374 -150.474 39.761C-147.94 43.6184 -144.747 46.6943 -141.541 49.7829C-137.572 53.6056 -133.584 57.4478 -130.801 62.815C-120.943 81.792 -129.337 92.5465 -138.993 104.918C-141.962 108.721 -145.049 112.676 -147.763 117.071C-159.208 135.585 -169.835 162.005 -164.316 184.307C-184.038 164.612 -192.268 152.348 -189.007 119.3Z" fill="#FFE2CC"/>
<path d="M-125.037 100.839C-96.4197 73.6303 -55.2897 75.6296 -32.1082 106.401C-23.2488 118.144 -24.7248 127.062 -26.787 139.521C-27.2 142.017 -27.6365 144.655 -28.0183 147.485C-28.7507 152.972 -28.0587 158.176 -27.3614 163.419C-26.8097 167.567 -26.2547 171.739 -26.3994 176.097C-27.6492 211.47 -55.6445 216.659 -78.5435 214.727C-97.5529 213.127 -133.613 227.951 -137.387 254.431C-136.924 251.178 -136.582 248.066 -136.25 245.045L-136.25 245.043C-135.083 234.43 -134.04 224.935 -128.339 214.396C-127.533 212.91 -126.196 210.915 -124.772 208.791C-119.806 201.381 -113.791 192.406 -125.615 198.041C-134.079 202.069 -142.742 215.513 -141.967 226.153C-142.127 223.967 -142.314 221.859 -142.497 219.797C-143.333 210.363 -144.081 201.919 -141.772 191.633C-140.138 184.361 -137.077 178.997 -133.992 173.59C-131.679 169.538 -129.353 165.461 -127.604 160.54C-141.141 164.526 -149.457 180.755 -155.839 194.097C-168.881 188.722 -160.416 161.831 -156.8 150.344C-156.692 150.002 -156.589 149.674 -156.49 149.36C-149.575 127.283 -140.671 115.704 -125.037 100.839Z" fill="#FFE2CC"/>
<path d="M-280.111 165.974C-276.751 173.5 -271.458 183.755 -267.192 185.404C-260.975 187.809 -246.265 179.064 -245.132 170.558C-258.596 158.086 -260.555 140.871 -259.543 121.062C-258.027 91.3581 -272.129 63.0537 -300.758 67.276C-305.418 67.9619 -309.252 70.6419 -313.045 73.2936C-317.203 76.2005 -321.312 79.0734 -326.409 79.2478C-330.157 79.3672 -333.642 78.372 -337.084 77.3892C-342.837 75.7469 -348.466 74.1397 -354.991 77.8285C-364.193 83.0317 -366.759 93.4302 -369.346 103.916C-369.911 106.208 -370.478 108.505 -371.115 110.752C-373.209 118.143 -376.566 124.894 -379.921 131.641C-383.679 139.199 -387.435 146.753 -389.413 155.198C-396.524 185.602 -382.074 207.057 -359.336 214.619C-353.757 216.47 -347.973 217.213 -342.287 217.944C-329.868 219.54 -317.917 221.076 -309.58 233.963C-306.162 230.527 -297.741 217.378 -297.058 212.825C-295.431 202.076 -309.797 184.724 -316.354 180.385C-309.43 182.384 -304.559 188.286 -300.425 194.645C-299.935 195.396 -299.339 196.523 -298.668 197.791C-296.727 201.463 -294.162 206.314 -291.73 206.597C-273.684 208.684 -295.248 172.709 -297.462 169.016L-297.527 168.907C-295.696 170.841 -293.572 174.447 -291.311 178.288C-287.666 184.477 -283.663 191.275 -279.948 192.662C-268.277 197.028 -275.64 176.82 -280.111 165.974Z" fill="#FFE2CC"/>
<path d="M-347.195 296.543C-346.255 296.657 -343.732 295.845 -340.823 294.909C-336.831 293.624 -332.11 292.105 -329.747 292.422C-326.443 292.847 -323.184 293.831 -319.943 294.809L-319.942 294.809C-316.369 295.888 -312.819 296.959 -309.259 297.267C-302.852 277.086 -301.114 251.747 -316.191 237.243C-326.29 227.54 -342.365 224.71 -355.24 223.351C-379.508 220.769 -401.987 228.669 -420.117 249.413C-428.393 258.886 -433.527 267.775 -436.125 280.996C-437.049 285.72 -437.201 290.286 -437.352 294.84C-437.538 300.451 -437.724 306.043 -439.353 311.891C-439.712 313.181 -440.081 314.49 -440.455 315.816C-446.145 335.982 -452.904 359.934 -439.506 377.425C-435.392 382.797 -430.782 386.527 -426.204 390.231C-420.458 394.88 -414.762 399.488 -410.163 407.253C-403.368 418.727 -394.565 432.062 -381.237 432.419C-366.173 432.824 -354.015 418.044 -343.353 405.084C-341.505 402.838 -339.703 400.646 -337.938 398.598C-322.523 380.702 -311.18 369.672 -291.144 361.908C-296.084 342.072 -332.263 342.22 -345.684 344.665C-342.893 343.205 -340.249 341.641 -337.654 340.107C-330.116 335.649 -322.998 331.439 -313.909 330.75C-311.865 321.443 -329.647 317.887 -339.294 315.958L-339.298 315.958C-341.141 315.589 -342.687 315.28 -343.741 315.001C-341.34 314.705 -338.773 314.525 -336.164 314.342L-336.161 314.342C-330.617 313.954 -324.879 313.553 -320.127 311.986C-323.363 303.939 -335.293 300.25 -343.65 297.665L-343.654 297.664C-344.933 297.268 -346.128 296.899 -347.195 296.543Z" fill="#FFE2CC"/>
<path d="M-360.002 464.578C-359.985 472.657 -356.807 476.497 -353.231 480.819C-351.395 483.037 -349.454 485.382 -347.782 488.492C-345.81 492.165 -344.668 496.631 -343.516 501.135C-341.635 508.488 -339.729 515.94 -334.144 520.2C-330.38 523.066 -326.776 522.587 -323.282 522.124C-319.175 521.579 -315.221 521.054 -311.337 526.004C-308.583 529.509 -307.042 533.171 -305.559 536.692C-303.274 542.121 -301.128 547.217 -294.899 550.89C-276.593 561.702 -255.001 559.569 -238.954 542.175C-238 541.141 -237.1 540.156 -236.24 539.216C-227.595 529.761 -223.122 524.869 -210.451 520.609C-198.16 516.492 -189.26 507.153 -181.464 495.423C-170.202 478.453 -166.573 452.013 -168.604 432.191C-169.457 423.82 -172.111 416.827 -174.806 409.727L-174.822 409.684C-176.218 406.005 -177.626 402.295 -178.797 398.348C-180.467 392.722 -181.483 386.803 -182.486 380.955C-183.339 375.986 -184.183 371.068 -185.412 366.425C-185.984 364.277 -185.841 362.966 -185.623 360.96C-185.586 360.62 -185.547 360.261 -185.509 359.875C-197.655 361.456 -198.767 373.426 -199.838 384.946C-200.448 391.513 -201.044 397.933 -203.663 402.201C-208.365 393.196 -213.097 380.407 -209.414 369.311C-208.82 367.54 -220.564 373.913 -221.487 374.843C-225.631 378.962 -229.012 385.62 -231.305 391.293C-235.832 402.534 -237.923 420.26 -236.628 432.32C-237.207 427.854 -237.855 423.724 -238.478 419.759C-240.383 407.625 -242.046 397.03 -240.753 383.026C-256.445 394.22 -261.971 434.644 -262.726 453.961C-266.805 442.466 -266.888 427.983 -265.943 415.446C-265.361 407.724 -263.169 401.708 -260.913 395.518C-259.564 391.817 -258.193 388.054 -257.13 383.827C-267.359 388.251 -275.16 397.549 -282.826 406.686C-288.046 412.908 -293.204 419.056 -299.024 423.539C-298.953 405.544 -280.626 376.132 -263.165 379.616C-280.573 365.685 -312.03 378.256 -327.705 393.958C-344.764 411.026 -360.087 438.117 -360.043 464.607L-360.002 464.578Z" fill="#FFE2CC"/>
<path d="M-28.2367 248.908C-38.8554 229.566 -54.8811 224.852 -74.582 225.884L-74.571 225.907C-89.6167 226.701 -104.286 230.368 -117.77 239.459C-123.052 243.014 -125.788 245.472 -129.615 251.357C-131.639 254.472 -133.201 259.311 -134.723 264.03C-136.366 269.12 -137.962 274.069 -140.045 276.558C-127.702 261.858 -111.031 245.529 -94.0708 259.471C-113.111 262.104 -131.528 278.202 -144.487 294.692C-141.485 294.356 -138.752 293.686 -136.112 293.038C-130.833 291.743 -125.924 290.538 -119.963 292.278L-119.863 292.307C-114.762 293.811 -103.202 297.218 -102.107 303.407C-118.104 298.377 -145.624 312.103 -157.787 325.405C-155.759 325.355 -153.832 325.128 -151.933 324.903L-151.931 324.903C-147.741 324.408 -143.688 323.929 -138.985 325.411C-136.105 326.321 -133.387 327.863 -130.673 329.403C-128.213 330.798 -125.755 332.193 -123.184 333.112C-142.016 333.158 -167.598 333.677 -182.392 352.052C-173.256 360.533 -170.446 376.734 -167.792 392.034C-166.528 399.319 -165.3 406.4 -163.442 412.345C-157.229 432.198 -142.537 431.85 -127.663 431.499C-122.932 431.387 -118.183 431.274 -113.682 431.811C-109.433 432.319 -105.698 434.136 -101.962 435.955C-97.7641 437.998 -93.565 440.041 -88.6333 440.229C-80.3817 440.54 -75.0926 436.565 -68.9866 431.975C-66.7999 430.332 -64.5086 428.609 -61.9388 426.977C-58.7235 424.935 -55.3487 423.656 -52.0299 422.398C-47.3768 420.635 -42.833 418.913 -38.9939 415.189C-31.8122 408.198 -30.7406 398.788 -29.6355 389.084C-29.4741 387.665 -29.3118 386.241 -29.1298 384.817C-27.2681 370.298 -24.3919 360.003 -16.1689 348.05C-8.28703 336.587 -4.31526 325.209 -5.1027 310.243C-5.79411 296.98 -9.88582 287.22 -16.3735 277.145C-19.5393 272.234 -21.2334 267.137 -22.9401 262.003C-24.392 257.635 -25.853 253.24 -28.2367 248.908Z" fill="#FFE2CC"/>
<path d="M-244.676 350.432C-243.608 354.147 -233.674 357.326 -225.022 360.095C-219.597 361.831 -214.677 363.406 -212.761 364.85C-209.747 333.127 -238.082 321.154 -258.693 315.325C-272.262 311.487 -298.18 301.026 -301.867 283.786C-301.816 288.685 -301.925 293.509 -302.032 298.236L-302.033 298.237C-302.549 320.951 -303.014 341.438 -285.33 357.372C-267.566 373.383 -246.464 377.655 -224.33 367.092C-226.853 365.082 -229.603 363.895 -232.272 362.744C-237.502 360.487 -242.418 358.365 -244.696 350.446L-244.676 350.432Z" fill="#FFE2CC"/>
<path d="M-183.55 314.726C-182.601 316.59 -178.346 327.447 -180.659 329.56C-173.78 323.354 -171.356 312.636 -169.082 302.578C-168.252 298.906 -167.442 295.323 -166.442 292.078C-162.877 302.931 -167.742 316.443 -171.911 328.022C-173.019 331.099 -174.078 334.04 -174.916 336.758C-154.031 326.206 -142.886 291.652 -140.552 267.027C-138.057 240.75 -147.668 213.938 -166.642 200.009C-159.635 221.082 -172.971 242.066 -184.709 260.535C-188.28 266.155 -191.704 271.542 -194.362 276.628C-203.081 293.328 -221.661 341.33 -205.026 357.345C-197.354 364.732 -193.305 348.102 -189.7 333.296C-187.695 325.06 -185.827 317.388 -183.55 314.726Z" fill="#FFE2CC"/>
<path d="M-219.341 247.73C-216.616 239.832 -210.705 231.668 -204.718 223.397C-192.99 207.199 -180.97 190.595 -192.02 174.795C-168.055 178.725 -171.46 207.228 -175.069 229.009C-177.508 243.665 -186.427 257.508 -195.465 271.534C-207.238 289.806 -219.211 308.389 -217.32 329.486C-217.841 326.309 -218.399 323.099 -218.962 319.865C-223.081 296.174 -227.43 271.159 -219.346 247.749L-219.341 247.73Z" fill="#FFE2CC"/>
<path d="M-216.318 335.913C-216.628 333.787 -216.966 331.644 -217.32 329.486C-217.13 331.602 -216.801 333.744 -216.318 335.913Z" fill="#FFE2CC"/>
<path d="M-256.93 310.088C-258.766 309.689 -260.579 309.197 -262.368 308.61L-262.384 308.606C-273.18 305.128 -283.004 298.633 -290.765 289.006C-299.151 278.602 -298.726 270.737 -298.056 258.367C-297.957 256.523 -297.851 254.578 -297.769 252.51C-297.278 240.309 -295.152 210.657 -279.353 210.42C-279.828 215.036 -280.824 218.776 -281.74 222.217C-283.594 229.175 -285.122 234.912 -281.352 244.208C-274.555 260.994 -262.61 275.905 -250.2 287.069C-248.66 288.451 -247.127 289.775 -245.619 291.078C-235.542 299.781 -226.593 307.511 -224.541 324.903C-231.201 315.455 -242.621 313.083 -252.76 310.976C-254.181 310.681 -255.576 310.391 -256.93 310.088Z" fill="#FFE2CC"/>
<path d="M-219.746 177.556C-223.73 181.923 -229.03 182.037 -234.203 182.148C-236.466 182.197 -238.705 182.245 -240.798 182.649C-251.767 184.777 -256.317 188.903 -262.982 198.732C-276.092 218.047 -279.736 236.061 -265.293 255.051C-268.6 243.836 -266.953 220.208 -253.962 217.399C-251.053 216.77 -248.202 217.383 -245.364 217.994C-242.125 218.691 -238.904 219.384 -235.634 218.221C-232.165 216.99 -229.967 214.08 -227.802 211.213C-225.539 208.218 -223.311 205.268 -219.704 204.328C-217.293 203.701 -215.105 204.298 -212.92 204.895C-210.08 205.67 -207.245 206.444 -203.93 204.528C-196.924 200.471 -194.192 190.216 -198.675 183.233C-202.647 177.033 -211.499 176.786 -217.077 176.631L-217.079 176.63C-217.98 176.605 -218.796 176.583 -219.491 176.537L-219.746 177.556Z" fill="#FFE2CC"/>
<path d="M-233.922 293.645C-233.859 294.13 -233.807 294.605 -233.767 295.07L-233.751 295.074C-233.794 294.59 -233.851 294.114 -233.922 293.645Z" fill="#FFE2CC"/>
<path d="M-233.922 293.645C-234.351 290.295 -235.26 286.482 -236.216 282.468C-238.805 271.603 -241.744 259.267 -236.475 250.68C-234.04 246.709 -231.793 246.435 -229.376 246.141C-227.644 245.93 -225.826 245.708 -223.789 244.11C-208.63 232.22 -223.806 216.093 -236.539 220.227C-248.828 224.203 -262.723 240.53 -258.276 255.804C-256.252 262.738 -251.305 268.038 -246.371 273.322C-240.767 279.324 -235.182 285.307 -233.922 293.645Z" fill="#FFE2CC"/>
<path d="M-394.349 621.32C-417.744 621.913 -440.782 619.053 -462.038 613.041C-484.946 606.562 -504.866 597.292 -525.305 585.452C-544.979 574.051 -565.732 560.366 -583.852 544.638C-593.677 536.103 -601.41 525.268 -609.144 514.431C-615.14 506.031 -621.137 497.629 -628.11 490.295C-636.544 481.406 -660.249 468.825 -661.007 494.421C-651.754 499.066 -645.642 507.092 -639.426 515.254C-635.615 520.258 -631.765 525.313 -627.128 529.672C-617.071 539.129 -606.245 547.932 -595.482 556.684L-595.481 556.685C-590.696 560.576 -585.923 564.457 -581.236 568.381C-553.052 592.004 -523.316 613.724 -489.288 624.742C-417.156 648.112 -342.036 641.548 -272.892 600.234L-272.421 599.952C-266.49 596.399 -261.08 593.158 -254.681 592.095C-252.258 591.693 -249.176 592.467 -246.165 593.223C-242.912 594.04 -239.742 594.836 -237.575 594.106C-225.625 590.074 -222.434 573.264 -229.494 562.785C-237.837 550.384 -244.866 557.845 -252.32 565.756C-254.46 568.028 -256.636 570.337 -258.888 572.224C-297.589 604.619 -346.715 620.13 -394.354 621.339L-394.349 621.32Z" fill="#FFE2CC"/>
<path d="M-550.406 702.415C-552.509 703.283 -555.75 704.621 -559.046 698.821L-559.057 698.798C-563.054 691.761 -549.721 663.066 -539.66 641.413C-533.242 627.602 -528.156 616.655 -529.749 616.024C-508.644 624.389 -522.54 673.429 -529.906 690.175L-529.755 689.834C-526.858 683.264 -523.523 675.702 -517.498 673.15C-509.916 683.656 -513.883 701.226 -517.731 718.273C-521.086 733.134 -524.352 747.597 -519.798 756.635C-512.771 744.781 -511.328 730.305 -509.936 716.352C-509.391 710.884 -508.853 705.495 -507.991 700.376C-495.288 717.238 -496.281 752.866 -497.498 775.242C-497.01 770.603 -496.44 766.042 -495.873 761.518C-493.915 745.861 -492.01 730.635 -493.777 714.091C-495.137 701.282 -498.365 689.356 -501.58 677.48C-503.409 670.728 -505.233 663.99 -506.706 657.117C-497.606 664.086 -493.52 675.644 -489.47 687.102C-487.119 693.753 -484.78 700.371 -481.479 706.037C-482.654 679.464 -489.771 660.298 -497.878 638.465L-497.879 638.462C-499.53 634.015 -501.222 629.458 -502.914 624.704C-477.745 642.203 -464.072 666.367 -452.638 698.138C-445.755 717.272 -440.096 736.322 -441.751 758.231C-442.769 771.798 -448.617 796.136 -459.337 802.859C-460.611 796.238 -463.088 789.781 -467.416 786.355L-467.654 787.627C-470.993 805.529 -473.982 821.555 -487.325 833.88C-489.166 835.584 -491.302 836.996 -493.454 838.42L-493.456 838.421C-496.756 840.604 -500.096 842.812 -502.475 846.136C-504.261 848.634 -505.209 851.608 -506.123 854.473C-507.673 859.334 -509.123 863.883 -514.394 865.264C-516.132 859.829 -515.938 853.581 -515.739 847.2C-515.569 841.718 -515.395 836.139 -516.442 830.896C-519.011 817.982 -525.746 806.714 -532.14 796.017L-532.15 796.001C-533.105 794.402 -534.053 792.816 -534.979 791.239C-536.402 788.812 -537.807 786.508 -539.173 784.267L-539.174 784.265L-539.175 784.265C-545.276 774.258 -550.625 765.487 -553.504 752.414C-556.191 740.259 -554.346 733.242 -551.986 724.264C-551.091 720.862 -550.123 717.179 -549.299 712.827C-547.072 701.038 -547.988 701.416 -550.406 702.415Z" fill="#FFE2CC"/>
<path d="M-351.378 670.169C-359.687 667.588 -368.346 668.611 -376.979 669.632C-384.997 670.579 -392.995 671.524 -400.671 669.577C-414.454 666.062 -427.676 655.92 -433.578 640.538C-420.571 651.866 -404.743 648.052 -389.128 644.29C-381.491 642.45 -373.906 640.622 -366.725 640.583C-352.413 640.503 -342.548 649.232 -332.518 658.107C-325.619 664.212 -318.642 670.385 -310.086 673.809C-297.37 678.9 -285.402 684.022 -274.139 693.246C-262.819 702.507 -246.572 717.18 -242.373 733.312C-239.52 744.254 -241.393 757.168 -243.121 769.076C-243.631 772.592 -244.129 776.022 -244.488 779.286C-245.408 787.642 -244.82 798.508 -244.189 810.176C-242.693 837.838 -240.952 870.009 -258.477 883.944C-261.417 846.585 -276.374 845.631 -299.6 844.149L-299.603 844.148L-299.606 844.148L-299.612 844.148L-299.613 844.147C-303.993 843.868 -308.667 843.57 -313.609 843.005C-326.357 841.54 -335.315 837.108 -346.136 830.089C-354.793 824.466 -358.537 819.319 -363.401 812.63L-363.404 812.626C-365.284 810.04 -367.333 807.224 -369.897 804.061C-373.542 799.566 -377.993 797.258 -382.495 794.925C-387.177 792.498 -391.914 790.043 -395.854 785.067C-405.222 773.248 -406.555 758.714 -407.951 743.152C-408.402 738.143 -408.508 731.866 -408.623 725.097C-408.963 705.033 -409.376 680.638 -419.054 672.072C-393.59 686.1 -385.082 721.567 -383.643 752.713C-376.787 731.126 -381.417 706.343 -385.21 686.044C-385.484 684.578 -385.753 683.136 -386.014 681.72C-371.807 685.294 -359.177 713.02 -354.527 727.887C-352.413 734.651 -351.313 741.82 -350.216 748.97C-348.92 757.416 -347.628 765.836 -344.674 773.53C-341.31 760.456 -343.359 745.595 -345.3 731.515L-345.3 731.514C-346.076 725.886 -346.835 720.383 -347.223 715.169C-342.268 718.971 -340.179 724.26 -337.999 729.779C-336.694 733.084 -335.356 736.473 -333.35 739.673C-331.074 743.307 -328.569 746.645 -326.039 750.018C-322.724 754.438 -319.365 758.916 -316.417 764.193C-307.394 780.358 -296.56 793.722 -281.836 802.834C-286.8 794.226 -293.157 785.408 -299.65 776.403C-310.686 761.098 -322.113 745.249 -327.758 728.955C-309.677 729.282 -295.77 735.538 -281.228 746.457C-286.537 729.195 -309.769 721.279 -327.787 715.139L-327.789 715.138L-327.792 715.137L-327.795 715.136C-332.654 713.48 -337.134 711.953 -340.781 710.407C-349.944 706.523 -357.933 702.184 -343.787 696.571C-337.96 694.267 -331.237 695.584 -324.53 696.899C-319.001 697.982 -313.483 699.063 -308.485 698.114C-320.791 689.968 -337.329 689.592 -351.538 689.936C-364.817 690.26 -368.936 687.479 -378.31 677.638C-370.145 673.323 -360.058 670.279 -351.367 670.192L-351.378 670.169Z" fill="#FFE2CC"/>
<path d="M-467.773 608.166C-447.46 605.025 -422.582 593.986 -403.071 577.955L-403.055 577.959C-385.256 563.322 -367.448 544.003 -355.761 522.164C-354.883 520.521 -354.144 518.899 -353.42 517.308L-353.419 517.307C-352.055 514.313 -350.742 511.431 -348.648 508.726C-348.241 509.217 -346.499 511.725 -344.237 514.983C-338.96 522.583 -330.85 534.263 -330.236 533.928C-333.578 535.764 -336.858 537.244 -340.084 538.699L-340.085 538.7C-347.539 542.062 -354.701 545.293 -361.657 552.487C-366.329 557.313 -370.479 562.69 -374.614 568.048C-380.302 575.418 -385.962 582.752 -392.912 588.563C-414.764 606.82 -443.197 619.621 -467.773 608.166Z" fill="#FFE2CC"/>
<path d="M-325.57 573.924C-338.106 595.32 -366.075 611.382 -386.543 617.569C-373.506 612.465 -366.59 595.643 -360.136 579.944C-357.057 572.453 -354.083 565.218 -350.599 559.635C-336.057 536.342 -309.227 546.051 -325.575 573.942L-325.57 573.924Z" fill="#FFE2CC"/>
<path d="M-555.156 540.01C-543.38 536.272 -519.692 520.837 -528.957 503.554L-528.952 503.535C-536.703 489.095 -546.302 502.225 -554.198 513.026C-557.382 517.381 -560.289 521.358 -562.686 522.996C-572.966 530.045 -592.23 526.434 -601.519 520.091C-598.456 522.181 -595.445 524.535 -592.429 526.892C-581.112 535.737 -569.711 544.647 -555.156 540.01Z" fill="#FFE2CC"/>
<path d="M-411.184 564.755C-402.89 557.165 -384.781 511.049 -407.46 525.679C-398.505 501.054 -403.505 484.362 -410.665 460.463L-411.007 459.322C-396.649 511.355 -462.796 604.786 -509.429 588.309C-478.66 599.192 -437.395 588.633 -411.184 564.755Z" fill="#FFE2CC"/>
<path d="M-489.196 540.426C-470.652 543.321 -496.212 570.135 -503.307 574.084C-511.933 578.894 -522.311 578.524 -530.889 575.33C-535.499 573.611 -539.52 569.352 -543.421 565.221C-547.285 561.129 -551.03 557.163 -555.109 555.918C-553.021 556.553 -551.063 557.213 -549.203 557.841L-549.201 557.842L-549.186 557.846C-538.063 561.6 -530.433 564.174 -519.431 552.862C-513.54 546.803 -509.223 538.782 -504.956 530.854C-502.709 526.678 -500.475 522.528 -498.032 518.704C-482.979 495.101 -477.214 522.594 -489.196 540.426Z" fill="#FFE2CC"/>
<path d="M-116.86 639.496C-116.622 646.601 -114.478 651.714 -112.417 656.626C-109.588 663.373 -106.916 669.743 -109.555 680.379C-111.892 689.812 -117.195 695.008 -122.709 700.411C-125.856 703.495 -129.072 706.646 -131.845 710.69C-116.706 708.65 -102.899 694.157 -93.4469 680.653C-91.1192 706.9 -103.86 730.662 -116.589 752.226C-100.087 744.998 -88.998 727.171 -80.9311 709.984C-75.1073 732.614 -82.0459 759.633 -90.3718 781.291C-105.367 820.27 -127.849 835.056 -160.423 824.551C-178.578 818.701 -181.148 809.095 -185.703 792.075C-186.034 790.84 -186.375 789.565 -186.733 788.249C-188.355 782.296 -192.064 777.587 -195.771 772.882C-200.593 766.761 -205.411 760.646 -205.619 751.806C-205.73 747.042 -204.068 743.642 -202.345 740.119C-201.017 737.403 -199.653 734.613 -199.038 731.068C-198.082 725.56 -199.513 721.172 -200.97 716.701C-201.785 714.202 -202.608 711.677 -203.028 708.915C-205.707 691.415 -200.434 678.87 -185.713 672.169C-177.472 668.422 -168.969 667.76 -160.72 667.117C-145.778 665.953 -131.67 664.854 -121.468 645.605C-120.322 643.445 -119.123 640.868 -118.08 638.094L-116.86 639.496Z" fill="#FFE2CC"/>
<path d="M-116.334 617.187C-113.876 623.173 -115.503 631.238 -118.08 638.094L-124.458 630.763C-133.038 640.575 -143.345 648.203 -154.371 654.738C-166.74 662.064 -178.025 667.476 -190.594 659.438C-199.972 653.453 -215.53 642.085 -221.241 631.058C-226.94 620.088 -224.074 612.31 -220.955 603.849C-219.074 598.744 -217.101 593.39 -216.862 586.937C-216.704 582.678 -217.483 578.348 -218.242 574.125C-220.149 563.523 -221.935 553.593 -208.469 547.162C-200.827 543.504 -193.431 545.688 -186.05 547.867C-181.648 549.167 -177.252 550.465 -172.813 550.521C-162.067 550.656 -153.486 543.582 -144.825 536.443C-137.648 530.527 -130.417 524.566 -121.853 522.623C-101.941 518.117 -80.077 527.895 -68.3405 546.2C-82.4173 542.523 -95.4476 554.046 -107.793 564.964C-113.477 569.99 -119.016 574.889 -124.446 578.116C-123.054 578.61 -109.455 581.245 -108.65 578.968C-113.149 591.616 -124.789 596.754 -135.041 601.28C-136.911 602.106 -138.736 602.912 -140.462 603.738C-137.203 606.516 -133.393 607.29 -129.695 608.042C-124.336 609.131 -119.212 610.172 -116.334 617.187Z" fill="#FFE2CC"/>
<path d="M90.9409 583.153C86.8583 590.918 75.9212 595.81 69.3044 598.77L69.2036 598.815C56.5419 604.484 51.1005 605.308 43.4334 592.678C55.1106 590.717 64.0273 583.978 73.6621 576.695C74.0454 576.406 74.43 576.115 74.8158 575.824C65.862 580.026 58.7057 580.092 51.1436 580.163C47.3667 580.198 43.4885 580.234 39.2347 580.786C49.2144 576.419 58.5559 571.508 67.6802 564.839C55.4694 569.039 41.4536 569.821 29.4166 565.852C40.9119 562.137 48.4769 551.359 55.9824 540.665C59.8357 535.175 63.6734 529.707 68.0192 525.229C83.7788 508.986 102.09 504.895 121.537 511.142C130.701 514.085 139.277 523.857 146.998 532.654L146.999 532.656C149.951 536.019 152.778 539.241 155.465 541.884C166.803 553.027 170.072 565.342 165.358 583.458C162.734 593.548 157.83 603.417 153.061 613.013C150.77 617.623 148.51 622.17 146.55 626.649C143.49 633.643 141.56 641.105 139.631 648.567C137.798 655.658 135.965 662.748 133.162 669.435C119.557 701.839 83.1502 715.494 57.9735 700.315C48.345 694.522 26.6208 679.875 26.7518 668.845C26.9211 654.294 34.0264 654.943 41.7315 655.647C42.4046 655.708 43.0821 655.77 43.76 655.822C56.9224 656.839 67.4559 655.981 80.4575 651.579C76.2012 650.978 71.6447 651.097 67.0388 651.216L67.0377 651.216C56.8287 651.481 46.377 651.753 38.4135 644.212C45.3528 640.592 52.7302 637.815 60.1836 635.009L60.1855 635.008C67.841 632.126 75.5767 629.214 83.0001 625.328C70.1312 630.934 53.3486 631.739 42.1524 629.254C48.0524 621.093 55.9791 615.727 63.9671 610.321C74.2574 603.356 84.6494 596.322 90.9409 583.153Z" fill="#FFE2CC"/>
<path d="M-111.261 616.825C-113.175 628.926 -110.867 644.948 -106.094 655.487C-102.006 664.502 -96.7874 667.05 -91.0136 669.869C-87.9289 671.376 -84.6856 672.959 -81.3715 675.648C-79.1285 677.475 -77.2117 680.274 -75.4224 682.887C-70.819 689.611 -67.0606 695.1 -60.7662 679.617C-59.8365 677.324 -59.5505 674.143 -59.254 670.843C-58.9484 667.444 -58.6315 663.918 -57.5874 661.108C-56.3141 657.689 -54.3668 654.526 -52.4171 651.359C-50.4487 648.162 -48.4779 644.961 -47.1955 641.488C-35.1352 608.93 -41.2876 586.469 -58.8999 562.443C-60.0162 560.915 -58.6897 556.08 -58.105 554.347C-68.9505 565.073 -78.4019 588.675 -79.0796 604.721C-78.9246 601.035 -79.3321 597.498 -79.7414 593.946C-80.2851 589.228 -80.832 584.482 -80.0693 579.317C-79.2513 573.772 -77.2699 568.641 -75.3328 563.625C-73.884 559.874 -72.46 556.187 -71.5663 552.438C-91.9701 551.433 -108.302 598.253 -111.245 616.829L-111.261 616.825Z" fill="#FFE2CC"/>
<path d="M0.508958 665.415C-3.72419 657.065 -7.89468 648.839 -4.49527 637.812C-20.9179 659.604 -38.0045 640.008 -32.6297 618.505C-32.082 616.314 -31.5205 614.284 -30.9873 612.356L-30.9867 612.353C-28.4125 603.046 -26.4974 596.122 -29.9743 584.983C-32.0809 578.211 -40.8643 559.448 -47.4899 557.169C-44.3036 557.126 -39.3698 559.694 -34.451 562.253C-25.4446 566.94 -16.4884 571.6 -18.4006 560.164C-19.8604 551.39 -41.3312 538.491 -48.3112 543.787C-24.4126 525.625 19.5951 551.603 30.7112 577.71C45.883 613.386 26.3135 658.341 6.9359 687.375C7.3729 678.955 3.92056 672.145 0.508958 665.415Z" fill="#FFE2CC"/>
<path d="M-47.4899 557.169C-47.6509 557.172 -47.8076 557.18 -47.9594 557.196C-48.8257 556.891 -48.8115 556.834 -47.9531 557.036C-47.8 557.071 -47.6455 557.116 -47.4899 557.169Z" fill="#FFE2CC"/>
<path d="M-28.3684 711.501C-7.16283 711.521 -16.2629 690.953 -25.3037 683.145C-39.8838 670.559 -41.23 664.967 -35.5957 643.638C-60.8975 654.013 -55.4949 711.463 -28.3527 711.506L-28.3684 711.501Z" fill="#FFE2CC"/>
<path d="M-47.473 707.526C-45.0016 710.454 -42.4892 713.43 -38.6677 714.991L-36.0213 720.566C-49.2119 720.874 -73.3753 713.495 -77.0197 696.287C-73.1028 698.009 -69.5601 698.206 -66.0891 698.4C-62.141 698.619 -58.2856 698.834 -54.078 701.281C-51.4529 702.81 -49.4765 705.152 -47.473 707.526Z" fill="#FFE2CC"/>
<path d="M-16.0235 678.276C-15.0988 678.742 -14.1125 679.118 -13.1242 679.495C-10.2143 680.604 -7.28692 681.72 -5.86182 685.169C-4.42692 688.654 -5.20737 692.186 -5.97348 695.654C-6.49358 698.008 -7.0071 700.332 -6.8162 702.591C8.75194 689.807 -1.4363 666.79 -12.8732 657.658C-16.7725 654.536 -27.1621 648.083 -31.2553 654.963C-37.0432 664.717 -20.973 675.785 -16.0392 678.271L-16.0235 678.276Z" fill="#FFE2CC"/>
<path d="M-43.2357 435.021C-51.5315 438.809 -58.4861 441.984 -63.6721 452.702L-63.6564 452.706C-71.4293 468.785 -75.2226 489.483 -71.9226 506.856C-69.7933 518.075 -65.0203 526.509 -60.1232 535.163C-57.6511 539.531 -55.1475 543.955 -52.9362 548.821C-57.6694 538.395 -47.1127 516.903 -40.8529 509.302C-37.8838 513.494 -38.8895 521.145 -39.7142 527.42C-39.8883 528.745 -40.0544 530.008 -40.1733 531.165C-23.3806 522.937 -17.5816 501.896 -12.2209 482.446L-12.2197 482.441L-12.2172 482.433L-12.2159 482.428L-12.2146 482.424C-11.1536 478.574 -10.1099 474.787 -9.00097 471.174C-5.48019 482.783 -9.16985 494.365 -12.8324 505.862C-15.6303 514.645 -18.4124 523.379 -17.952 532.037C-4.15919 532.283 10.3525 520.695 15.8065 504.263C13.7448 515.128 8.08561 525.005 2.82652 534.183L2.80688 534.218C1.84733 535.892 0.901323 537.543 -0.00652935 539.173C0.993355 540.124 2.05698 541.183 3.16758 542.289C7.63192 546.735 12.8567 551.939 17.7605 553.892C23.9127 556.344 26.9159 553.409 31.516 548.914C32.5246 547.928 33.6105 546.867 34.8226 545.772C35.3147 545.326 35.8072 544.881 36.2999 544.435C51.6703 530.532 67.2708 516.421 75.6396 495.012C81.8813 479.065 89.5811 454.725 89.8783 437.845C90.0065 430.126 89.3296 420.442 85.1942 414.425C82.7049 410.797 79.9396 408.692 77.2358 406.635C73.8152 404.031 70.4928 401.503 67.952 396.058C63.0615 385.587 59.3317 379.361 47.5044 381.085C44.2931 381.557 41.5929 383.196 38.9144 384.822C36.4184 386.337 33.9412 387.841 31.0867 388.378C27.866 388.988 24.9079 388.042 21.9294 387.089C19.9241 386.448 17.9089 385.803 15.7986 385.629C4.94892 384.721 -10.7111 389.724 -16.8965 402.011C-18.6817 405.555 -20.02 408.828 -21.2571 411.853C-24.8826 420.72 -27.6394 427.462 -38.2297 432.673C-39.9464 433.519 -41.6151 434.281 -43.233 435.02L-43.2357 435.021Z" fill="#FFE2CC"/>
<path d="M-118.093 486.769C-116.108 492.364 -108.1 497.052 -101.153 501.118C-97.7317 503.121 -94.5675 504.973 -92.5072 506.709C-87.3586 511.067 -83.2752 516.798 -79.1781 522.547C-75.6906 527.441 -72.1933 532.349 -68.0209 536.436C-78.913 523.843 -78.631 507.178 -78.3511 490.645C-78.203 481.903 -78.0557 473.198 -79.561 465.152C-82.9649 446.982 -105.894 441.466 -119.839 442.975C-124.124 443.443 -129.396 444.654 -134.571 445.843C-137.296 446.469 -139.994 447.089 -142.506 447.591C-152.796 449.629 -158.601 459.115 -160.273 471.729C-161.159 478.403 -160.27 485.292 -159.375 492.223C-158.805 496.633 -158.234 501.061 -158.116 505.461C-157.872 514.719 -155.193 526.362 -145.131 526.179C-141.553 526.119 -137.912 523.539 -134.255 520.947C-131.363 518.898 -128.462 516.842 -125.572 516.018C-119.853 514.39 -114.763 514.867 -109.659 515.345C-106.03 515.685 -102.394 516.026 -98.52 515.611C-100.83 511.15 -104.152 507.12 -107.475 503.09C-111.713 497.95 -115.951 492.809 -118.093 486.769Z" fill="#FFE2CC"/>
<path d="M26.2189 720.733C28.2447 723.453 30.2863 726.195 31.9282 729.625L31.9235 729.644C20.3377 726.226 8.77507 716.048 1.92399 704.8C7.3179 718.443 9.48461 739.272 6.14358 754.323C3.72468 749.363 1.95183 744.124 0.185351 738.904C-2.74608 730.241 -5.6598 721.631 -11.478 714.44C-11.61 720.267 -12.2436 726.358 -12.8809 732.485L-12.8811 732.486C-13.7099 740.453 -14.5452 748.481 -14.2931 756.076C-16.3253 749.99 -18.1662 743.586 -19.9906 737.24C-21.5629 731.77 -23.123 726.343 -24.7827 721.199C-27.024 730.098 -28.5931 738.918 -30.1675 747.767C-31.1779 753.446 -32.1904 759.137 -33.3842 764.87C-31.7963 749.435 -38.6719 733.021 -47.4126 721.625C-47.4039 730.817 -52.8249 747.319 -58.4322 754.397C-56.8598 740.159 -60.3825 728.661 -67.1077 717.852C-65.2361 731.783 -70.2729 745.158 -75.34 758.613C-79.8482 770.584 -84.3803 782.618 -84.0927 795.165C-83.7533 810.307 -76.5531 822.987 -66.0926 830.974C-59.4444 836.043 -52.3151 837.102 -44.9756 838.193C-41.4351 838.719 -37.8457 839.252 -34.2378 840.246C-30.4699 841.288 -27.3494 843.417 -24.3013 845.497C-19.8211 848.554 -15.4975 851.505 -9.50485 850.736C-4.34391 850.079 0.9334 847.271 6.28237 844.425C10.3759 842.247 14.5116 840.046 18.6691 838.771C39.2682 832.464 42.9219 818.877 47.6073 801.452C49.1537 795.701 50.8125 789.533 53.2299 783.07C54.5943 779.431 56.2984 776.173 57.9751 772.967C60.8917 767.392 63.7253 761.975 64.5423 754.986C67.5051 729.731 54.655 705.779 36.5534 694.217C35.2274 693.371 33.6842 692.535 32.0734 691.662L32.0711 691.661C26.1565 688.456 19.3343 684.76 19.026 678.288C19.2061 682.157 18.7809 685.778 18.359 689.37C17.7062 694.929 17.0614 700.418 18.682 706.652C20.2638 712.738 23.2239 716.712 26.2189 720.733Z" fill="#FFE2CC"/>
<path d="M116.934 480.799C110.293 480.519 91.3203 483.557 82.2733 492.212C88.8546 479.891 99.4376 467.08 108.725 462.321C116.873 458.142 134.529 454.654 137.979 466.576C142.473 482.19 127.474 481.371 118.851 480.9C118.174 480.863 117.535 480.828 116.949 480.804L116.934 480.799Z" fill="#FFE2CC"/>
<path d="M77.3798 503.541C78.493 499.997 80.1808 496.13 82.2733 492.212C79.0885 495.259 77.1337 499.002 77.3798 503.541Z" fill="#FFE2CC"/>
<path d="M167.459 497.675C175.037 508.3 188.964 511.108 194.795 495.591L194.78 495.587C206.175 465.284 152.979 451.955 136.475 457.103C148.185 462.361 153.457 472.488 158.974 483.086C161.528 487.993 164.135 493.002 167.459 497.675Z" fill="#FFE2CC"/>
<path d="M176.782 405.754C172.362 427.267 153.251 437.406 136.076 446.518C130.287 449.589 124.718 452.543 120.006 455.777C131.952 447.584 140.013 431.364 143.335 416.389C145.991 404.417 150.95 386.128 163.767 385.088C173.938 384.269 179.009 394.892 176.782 405.754Z" fill="#FFE2CC"/>
<path d="M166.173 448.537C173.605 448.437 179.142 450.125 185.568 454.184L185.563 454.203C192.323 458.477 198.654 461.096 206.212 463.254C214.461 465.607 232.808 465.142 228.619 448.567C224.479 432.128 204.492 433.362 192.88 434.561C175.934 436.292 158.255 439.673 143.363 451.234C147.305 448.173 156.452 448.365 162.631 448.495L162.632 448.495C163.983 448.524 165.192 448.549 166.173 448.537Z" fill="#FFE2CC"/>
<path d="M184.579 424.306C179.916 426.69 175.28 429.061 170.942 431.716C180.873 424.429 184.534 412.105 188.182 399.828C189.367 395.839 190.551 391.854 191.948 388.049C193.727 383.221 198.957 374.016 204.403 376.203C207.717 377.544 207.654 380.889 207.591 384.278C207.575 385.126 207.559 385.977 207.596 386.8C214.182 376.545 229.243 371.313 223.329 389.452C220.885 396.94 214.977 403.469 209.659 408.448C202.459 415.162 193.47 419.759 184.579 424.306Z" fill="#FFE2CC"/>
<path d="M167.824 433.716C168.928 433.101 169.965 432.433 170.942 431.716C169.884 432.364 168.843 433.029 167.824 433.716Z" fill="#FFE2CC"/>
<path d="M41.9791 341.199C42.0785 340.86 42.1799 340.514 42.2796 340.165L42.2843 340.146C43.2368 336.74 43.9549 332.924 41.1845 330.807C30.7714 322.85 19.0323 349.282 10.9164 367.555C7.653 374.903 4.97546 380.932 3.2055 382.875C9.74666 375.698 17.2091 367.731 25.9061 364.859C30.3644 363.391 35.0097 363.348 39.6939 363.304C43.8169 363.266 47.9703 363.227 52.0528 362.216C60.6084 360.112 79.3639 353.501 72.4606 338.219C67.9743 328.286 44.7314 330.962 41.5111 342.836C41.6503 342.321 41.8109 341.773 41.9769 341.206L41.9791 341.199Z" fill="#FFE2CC"/>
<path d="M25.5958 257.671C27.5483 273.406 19.8865 288.715 12.4882 303.498C8.75622 310.955 5.09127 318.277 2.76136 325.453C6.34187 314.429 8.8434 299.303 7.91791 287.853C7.70023 285.171 7.12503 282.018 6.51059 278.65C4.38796 267.014 1.79592 252.805 11.8491 246.533C19.6263 241.684 24.5464 249.276 25.5911 257.69L25.5958 257.671Z" fill="#FFE2CC"/>
<path d="M105.891 306.59C112.393 313.515 118.893 320.439 126.9 325.018L126.86 325.047C132.636 328.337 141.376 330.95 146.474 324.092C150.792 318.264 149.928 310.608 145.108 306.862C151.958 308.415 159.792 302.936 160.698 294.327C161.845 283.284 152.11 277.366 145.29 273.22C144.852 272.953 144.426 272.694 144.015 272.442C128.541 262.895 111.168 263.232 93.9045 268.185L93.5151 268.297C78.0764 272.726 60.2456 277.842 50.3924 294.137C57.5876 282.377 78.2549 283.833 86.9779 289.431C94.0444 293.971 99.9685 300.282 105.891 306.59Z" fill="#FFE2CC"/>
<path d="M171.795 277.41C169.65 273.119 167.614 268.162 165.52 263.059C156.316 240.638 145.961 215.415 120.08 231.621C121.347 230.828 122.564 230.053 123.748 229.3L123.749 229.299C132.093 223.988 138.731 219.762 148.772 217.985C150.872 217.612 153.025 217.178 155.213 216.737L155.215 216.736C168.062 214.145 182.085 211.317 193.234 219.251C195.621 220.949 196.95 222.966 198.219 224.891C199.655 227.07 201.014 229.132 203.742 230.483C206.303 231.751 208.83 232.522 211.352 233.291C215.202 234.466 219.039 235.637 222.966 238.566C236.255 248.504 245.294 263.926 241.58 284.041C239.906 293.16 235.945 305.168 227.218 305.87C219.763 306.468 212.782 300.858 210.421 293.263C199.201 314.244 177.424 288.697 171.79 277.429L171.795 277.41Z" fill="#FFE2CC"/>
<path d="M44.1001 154.613C37.2193 161.331 40.0934 179.533 42.0231 187.167L42.0703 187.181C43.0366 191.012 44.1385 194.963 45.2645 198.999C51.9805 223.076 59.5557 250.234 44.358 273.661C58.1409 252.597 65.8241 218.559 65.5796 193.002C65.5636 191.098 65.348 189.103 65.13 187.086C64.699 183.099 64.2589 179.028 65.3327 175.402C73.3543 181.001 70.6628 194.489 68.4192 205.734C67.5197 210.241 66.6923 214.388 66.6557 217.521C74.6883 204.242 80.2634 188.067 84.1201 172.637C82.9824 177.4 82.381 182.398 81.7764 187.422L81.7763 187.424C81.2258 191.998 80.6727 196.595 79.7096 201.058C78.7766 205.388 77.5049 209.868 76.2262 214.373C74.3343 221.039 72.4272 227.757 71.5797 234.122C82.6215 221.33 89.6267 199.096 93.8276 182.29C94.218 180.721 94.6634 178.989 95.1427 177.125L95.147 177.109C99.6384 159.644 107.092 130.66 100.046 116.937C98.119 118.075 96.6451 119.732 95.4221 121.107C92.7847 124.072 91.3141 125.726 88.9825 118.029C88.1515 115.298 87.7084 112.793 87.2955 110.459C86.3355 105.031 85.5385 100.526 80.4074 96.2358C78.6243 98.6299 77.283 101.428 75.9328 104.245C74.8461 106.512 73.7537 108.791 72.4205 110.881C71.8143 111.832 71.2149 112.759 70.6252 113.67L70.6194 113.679L70.6136 113.688C66.8175 119.554 63.4278 124.791 61.23 132.012C59.7516 136.864 59.4966 141.737 59.2425 146.592C58.9814 151.579 58.7214 156.547 57.1373 161.451C56.9728 161.246 56.8029 161.03 56.6282 160.806L56.5307 160.68L56.4802 160.615L56.3298 160.421L56.0712 160.085C52.9606 156.049 48.5286 150.297 44.1001 154.613Z" fill="#FFE2CC"/>
<path d="M174.035 188.172C175.508 187.823 177.112 187.359 178.784 186.875C183.998 185.366 189.861 183.668 194.391 184.72C198.018 185.564 208.413 192.604 200.472 195.952C198.502 196.78 195.449 196.698 192.331 196.615C189.493 196.539 186.601 196.462 184.42 197.067C179.732 198.352 175.142 200.139 170.556 201.926L170.554 201.927C169.961 202.158 169.368 202.389 168.774 202.619C154.037 208.306 139.577 214.637 125.61 222.361C105.494 233.474 84.5507 250.049 67.675 267.391C38.9917 296.883 15.2269 335.118 -2.07443 374.434C-2.44325 375.272 -2.85251 376.587 -3.31371 378.07L-3.314 378.071C-4.84932 383.007 -6.95968 389.792 -10.0693 386.956C-13.7205 383.628 -8.75083 370.186 -6.40996 363.855C-6.05224 362.887 -5.75588 362.086 -5.56111 361.512C0.950598 342.127 9.58805 323.668 20.7081 307.061C48.2332 265.972 85.1446 229.153 125.728 207.61C141.078 199.471 157.861 191.999 174.056 188.157L174.035 188.172Z" fill="#FFE2CC"/>
<path d="M244.444 177.489C246.234 177.531 248.088 177.591 249.984 177.683L249.975 177.721C263.862 178.397 279.672 181.212 282.436 199.585C282.68 201.199 282.565 202.83 282.451 204.454C282.277 206.927 282.104 209.387 283.198 211.756C283.996 213.475 285.23 214.614 286.473 215.763C287.786 216.977 289.111 218.2 289.944 220.127C294.109 229.727 288.326 242.491 283.213 250.355C279.259 235.102 272.488 232.576 263.667 229.284C260.061 227.938 256.112 226.464 251.872 223.941C245.441 220.102 239.576 214.202 236.158 207.136C235.572 205.924 235.259 204.866 234.966 203.876C234.377 201.887 233.869 200.17 231.386 198.011C225.621 192.988 215.065 188.346 207.566 188.649C210.815 175.955 231.052 176.888 241.422 177.367C242.56 177.419 243.579 177.466 244.444 177.489Z" fill="#FFE2CC"/>
<path d="M243.439 169.015C257.9 166.759 272.885 170.789 286.452 174.627L286.457 174.608C287.172 174.81 287.906 175.026 288.655 175.247C295.1 177.145 302.661 179.371 309.065 175.953C319.765 170.255 317.334 154.319 308.281 149.255C307.357 148.741 305.769 148.612 304.365 148.499C303.187 148.403 302.138 148.318 301.72 148.025C300.552 147.211 300.188 146.143 299.829 145.093C299.514 144.17 299.204 143.262 298.358 142.55C293.785 138.692 285.848 139.194 280.426 141.356C272.656 144.461 266.356 150.28 260.084 156.073C254.802 160.952 249.54 165.812 243.439 169.015Z" fill="#FFE2CC"/>
<path d="M243.439 169.015C239.299 169.661 235.202 170.822 231.193 172.65C235.714 172.296 239.731 170.961 243.439 169.015Z" fill="#FFE2CC"/>
<path d="M-53.2605 62.3526C-45.1705 53.6839 -33.0268 52.0548 -22.5352 50.6608C-15.1885 49.6891 1.61606 44.4852 -1.90214 31.5544C-5.27715 19.1284 -23.234 25.6422 -30.0145 30.0054C-40.1491 36.5267 -45.3687 46.8288 -50.7125 57.3759C-51.5522 59.0333 -52.395 60.6968 -53.2605 62.3526Z" fill="#FFE2CC"/>
<path d="M-53.2605 62.3526C-55.8846 65.1644 -58.0822 68.7168 -59.6586 73.2421C-57.2639 69.7548 -55.205 66.0731 -53.2605 62.3526Z" fill="#FFE2CC"/>
<path d="M10.3137 15.2775C2.46406 12.6004 -6.62154 9.50488 -14.5745 13.0979C-13.5484 12.1745 -12.5363 11.2377 -11.528 10.3042L-11.5238 10.3002C-5.05622 4.31325 1.2606 -1.53426 10.1376 -2.80734C16.0772 -3.67211 30.5635 -2.16004 29.8616 8.32517C29.1347 19.2476 15.8149 17.1768 10.309 15.2964L10.3137 15.2775Z" fill="#FFE2CC"/>
<path d="M-21.9077 18.9887C-19.3108 17.2262 -16.9065 15.1968 -14.5745 13.0979C-17.1665 14.2689 -19.6383 16.1505 -21.9077 18.9887Z" fill="#FFE2CC"/>
<path d="M-369.728 45.8704C-358.423 48.8546 -345.344 52.3291 -338.058 63.4128C-336.612 67.9922 -335.033 72.5409 -333.045 76.9062C-333.927 71.4377 -335.686 67.0218 -338.058 63.4128C-338.7 61.3783 -339.316 59.3378 -339.93 57.3047L-339.93 57.3032C-343.833 44.3729 -347.647 31.7397 -357.578 22.8502C-364.224 16.9111 -382.803 6.991 -388.892 20.9812C-395.207 35.534 -377.67 43.7657 -369.739 45.8471L-369.728 45.8704Z" fill="#FFE2CC"/>
<path d="M-332.901 42.2468C-334.061 27.3955 -327.714 14.8202 -322.221 3.96984C-318.365 -3.64412 -311.685 -23.5665 -323.062 -31.389C-333.994 -38.9038 -340.466 -16.7819 -341.545 -6.80738C-343.168 8.11121 -339.063 21.728 -334.861 35.6689L-334.855 35.6889C-334.199 37.8649 -333.541 40.0487 -332.901 42.2468Z" fill="#FFE2CC"/>
<path d="M-332.901 42.2468C-332.524 47.0783 -331.352 52.1506 -329.099 57.4828C-330.102 52.2837 -331.453 47.229 -332.901 42.2468Z" fill="#FFE2CC"/>
<path d="M-352.437 -25.4591C-355.33 -14.6476 -358.674 -2.1113 -354.916 10.6303C-355.89 8.85175 -356.879 7.09009 -357.863 5.33481C-364.161 -5.88918 -370.313 -16.8533 -371.609 -30.316C-372.476 -39.3062 -370.78 -60.2342 -359.674 -56.2448C-348.116 -52.1075 -350.407 -33.044 -352.437 -25.4591Z" fill="#FFE2CC"/>
<path d="M-348.743 23.0666C-350.588 18.7537 -352.715 14.6489 -354.916 10.6303C-353.695 14.7714 -351.724 18.9342 -348.743 23.0666Z" fill="#FFE2CC"/>
<path d="M-371.416 1.2487C-379.509 -3.95963 -390.114 -1.56633 -399.285 0.531595C-405.714 2.00537 -420.799 2.6869 -419.542 -10.0851C-418.33 -22.3445 -402.068 -22.2086 -395.676 -20.441C-386.13 -17.7946 -380.265 -10.1893 -374.261 -2.40249C-373.321 -1.18374 -372.378 0.0394155 -371.416 1.2487Z" fill="#FFE2CC"/>
<path d="M-364.443 9.03288C-366.41 5.44923 -368.78 2.94554 -371.416 1.2487C-369.241 3.9852 -366.973 6.65065 -364.443 9.03288Z" fill="#FFE2CC"/>
<path d="M-406.943 -36.7145C-395.485 -33.7026 -382.237 -30.1841 -374.857 -18.9379C-373.394 -14.3048 -371.797 -9.70159 -369.786 -5.28235C-370.682 -10.8149 -372.46 -15.2842 -374.857 -18.9379C-375.507 -20.996 -376.13 -23.0601 -376.751 -25.1165C-380.707 -38.2196 -384.571 -51.0155 -394.638 -60.0143C-401.38 -66.0411 -420.186 -76.0657 -426.338 -61.8913C-432.746 -47.1632 -414.967 -38.8226 -406.943 -36.7145Z" fill="#FFE2CC"/>
<path d="M-314.375 -201.71C-306.345 -207.703 -297.048 -214.615 -287.69 -213.515C-284.755 -212.018 -281.755 -210.626 -278.599 -209.606C-281.609 -211.957 -284.652 -213.158 -287.69 -213.515C-288.991 -214.179 -290.279 -214.863 -291.563 -215.545C-299.761 -219.899 -307.772 -224.155 -317.685 -222.277C-324.312 -221.02 -339.781 -213.884 -336.999 -202.252C-334.096 -190.161 -320.005 -197.506 -314.375 -201.71Z" fill="#FFE2CC"/>
<path d="M-297.441 -230.214C-308.045 -237.08 -321.749 -234.344 -333.585 -231.943C-341.885 -230.252 -361.415 -229.838 -360.064 -246.017C-358.755 -261.561 -337.689 -260.914 -329.375 -258.482C-316.935 -254.856 -309.171 -245.023 -301.22 -234.952C-299.971 -233.371 -298.718 -231.784 -297.441 -230.214Z" fill="#FFE2CC"/>
<path d="M-288.268 -220.156C-290.886 -224.746 -294.001 -227.985 -297.441 -230.214C-294.573 -226.687 -291.587 -223.247 -288.268 -220.156Z" fill="#FFE2CC"/>
<path d="M-280.805 -67.504C-281.239 -66.1726 -281.672 -64.8411 -282.086 -63.5241C-287.36 -47.0011 -287.321 -29.3791 -277.101 -16.5923C-281.052 -25.8145 -272.19 -29.0794 -264.4 -31.9496C-260.892 -33.242 -257.602 -34.4544 -255.796 -36.0946C-251.09 -40.3778 -247.056 -47.7598 -245.958 -54.5783C-245.556 -57.0534 -245.655 -59.4079 -245.752 -61.7118C-245.903 -65.3035 -246.049 -68.7721 -244.285 -72.3826C-249.822 -75.0166 -254.063 -70.7446 -258.124 -66.6543C-259.669 -65.0985 -261.188 -63.5689 -262.742 -62.4557C-261.888 -63.0652 -261.069 -65.9559 -260.19 -69.0541C-259.296 -72.2074 -258.341 -75.5757 -257.228 -76.9722C-256.125 -78.3513 -254.826 -79.5529 -253.651 -80.6403C-249.998 -84.0205 -247.537 -86.2973 -255.863 -89.3702C-270.569 -94.7819 -276.368 -81.0123 -280.805 -67.504Z" fill="#FFE2CC"/>
<path d="M-236.14 -34.5941C-240.501 -39.3015 -243.835 -45.2934 -242.914 -52.7478L-242.91 -52.7667C-241.967 -60.3766 -236.771 -72.6805 -228.867 -70.6269C-223.795 -69.2974 -222.252 -63.2805 -220.87 -57.8907L-220.87 -57.889C-220.655 -57.0503 -220.443 -56.2268 -220.223 -55.4385L-220.222 -55.8153C-220.188 -64.7723 -220.165 -71.0251 -224.183 -78.7942C-211.814 -88.1405 -201.369 -77.734 -198.715 -63.6339C-197.12 -55.199 -199.616 -48.8342 -202.558 -41.3317C-202.772 -40.7871 -202.988 -40.2366 -203.205 -39.6788C-206.189 -32.0032 -206.248 -28.8013 -206.377 -21.7653C-206.392 -20.9122 -206.409 -20.0028 -206.432 -19.0222C-210.215 -24.4958 -215.927 -26.0053 -221.712 -27.5342C-226.912 -28.9081 -232.17 -30.2977 -236.14 -34.5941Z" fill="#FFE2CC"/>
<path d="M-195.445 -137.395C-193.066 -135.934 -190.978 -133.647 -189.402 -130.657C-184.261 -136.526 -178.314 -132.421 -173.554 -129.136L-173.553 -129.135C-173.167 -128.869 -172.789 -128.608 -172.42 -128.358C-171.759 -127.908 -171.058 -127.506 -170.354 -127.104C-168.684 -126.148 -167.001 -125.184 -165.813 -123.541C-165.178 -122.662 -164.415 -119.035 -163.823 -116.217C-163.423 -114.314 -163.1 -112.781 -162.947 -112.713C-168.892 -115.455 -172.656 -108.259 -175.552 -102.724C-175.854 -102.146 -176.147 -101.586 -176.432 -101.057C-180.419 -93.6618 -183.179 -88.7472 -189.862 -84.4371C-198.696 -78.7477 -204.024 -81.8912 -210.108 -85.4801C-213.268 -87.3442 -216.631 -89.3284 -220.795 -90.2576C-221.63 -97.792 -216.26 -102.467 -211.569 -106.55C-210.276 -107.676 -209.034 -108.757 -207.988 -109.841C-212.699 -111.158 -215.977 -108.255 -219.264 -105.345C-220.413 -104.328 -221.563 -103.31 -222.776 -102.471C-223.287 -102.11 -221.958 -115.71 -221.647 -117.157C-219.94 -124.793 -216.752 -131.485 -210.915 -135.913C-205.609 -139.967 -199.981 -140.193 -195.467 -137.442L-195.445 -137.395Z" fill="#FFE2CC"/>
<path d="M-249.304 -159.895C-243.493 -160.139 -238.293 -160.358 -232.638 -156.355C-223.088 -149.574 -219.928 -136.22 -223.366 -123.681C-225.091 -117.383 -230.405 -100.972 -237.846 -108.045C-239.312 -109.435 -239.776 -111.538 -240.224 -113.571C-240.778 -116.085 -241.309 -118.492 -243.683 -119.309C-243.686 -118.808 -243.668 -118.134 -243.648 -117.346C-243.497 -111.509 -243.185 -99.3964 -249.841 -104.571C-250.284 -104.907 -250.913 -107.146 -251.558 -109.443C-252.148 -111.544 -252.752 -113.694 -253.239 -114.479C-254.884 -117.125 -257.227 -119.605 -259.577 -121.179C-256.588 -114.416 -251.15 -101.084 -253.313 -92.9705C-266.941 -94.6841 -279.71 -97.811 -282.57 -116.473C-284.23 -127.344 -279.514 -138.127 -274.651 -147.415C-272.147 -152.193 -271.359 -156.158 -270.51 -160.432C-270.027 -162.861 -269.524 -165.39 -268.675 -168.224C-266.744 -167.215 -265.143 -165.863 -263.573 -164.537C-260.688 -162.1 -257.905 -159.75 -253.365 -159.773C-251.971 -159.783 -250.622 -159.839 -249.304 -159.895Z" fill="#FFE2CC"/>
<path d="M-224.465 -86.6904C-226.228 -79.6359 -232.604 -75.3401 -238.72 -77.0699C-244.836 -78.7997 -248.36 -85.9158 -246.602 -92.9515C-244.843 -99.9872 -238.462 -104.302 -232.346 -102.572C-226.23 -100.842 -222.706 -93.7262 -224.465 -86.6904Z" fill="#FFE2CC"/>
<path d="M-174.387 -69.5191L-174.384 -69.5217C-173.702 -70.1768 -173.013 -70.8379 -172.308 -71.4944L-172.292 -71.4899C-162.601 -80.5635 -151.645 -89.0372 -142.096 -75.0468C-136.69 -67.1331 -139.713 -66.6749 -144.216 -65.9926C-145.667 -65.7727 -147.272 -65.5296 -148.797 -65.0063C-150.332 -64.4811 -152.631 -62.1154 -154.784 -59.9015C-156.891 -57.7334 -158.857 -55.7109 -159.825 -55.7048C-158.058 -55.7109 -156.132 -56.1041 -154.174 -56.504C-149.019 -57.5567 -143.635 -58.6561 -140.3 -52.8685C-143.359 -50.7954 -144.803 -47.6513 -146.295 -44.3996C-147.255 -42.31 -148.234 -40.1759 -149.677 -38.2529C-153.644 -32.9528 -160.258 -28.9867 -166.033 -28.1762C-168.248 -27.8605 -171.485 -28.8597 -174.936 -29.9246C-182.58 -32.2836 -191.269 -34.965 -192.196 -24.3876C-194.765 -42.0587 -186.879 -57.5805 -175.136 -68.8003C-174.887 -69.0387 -174.637 -69.2785 -174.387 -69.5191Z" fill="#FFE2CC"/>
<path d="M-148.045 -34.7424C-152.147 -28.7732 -152.122 -21.3948 -150.691 -14.5272C-149.389 -8.26212 -145.725 -3.73967 -142.103 0.731998C-138.07 5.70956 -134.089 10.6242 -133.473 17.8093C-132.997 16.9357 -132.561 16.1244 -132.153 15.3647C-128.905 9.32167 -127.413 6.54428 -121.545 1.6736C-121.318 1.48557 -121.092 1.2992 -120.867 1.11414C-120.667 0.949643 -120.469 0.786208 -120.271 0.623615C-114.494 -4.12767 -109.599 -8.1536 -107.101 -16.5781C-102.928 -30.6459 -106.763 -46.3523 -121.052 -45.8902C-121.279 -36.4894 -124.135 -30.9781 -128.25 -23.0379L-128.339 -22.8676C-128.161 -23.718 -127.958 -24.5952 -127.752 -25.4887C-126.461 -31.0862 -125.022 -37.3247 -128.543 -41.6471C-134.072 -48.4213 -143.844 -40.8448 -148.045 -34.7424Z" fill="#FFE2CC"/>
<path d="M-69.3201 -69.6708C-69.2528 -73.3072 -69.9213 -76.6267 -71.2155 -79.3961L-71.2312 -79.4005C-73.6827 -84.6783 -78.3776 -87.9854 -84.5263 -87.7655C-91.2678 -87.5314 -96.8849 -83.647 -101.713 -78.0044C-102.616 -76.9473 -109.825 -65.8184 -109.237 -65.8137C-107.873 -65.7929 -106.479 -65.9672 -105.086 -66.1413C-101.086 -66.6414 -97.0955 -67.1403 -93.844 -63.015C-95.1768 -62.723 -96.6673 -62.5542 -98.2205 -62.3782C-103.889 -61.736 -110.391 -60.9994 -113.105 -53.8408C-110.125 -50.4084 -108.274 -46.5495 -106.535 -42.9248C-103.188 -35.9477 -100.257 -29.838 -90.4858 -29.3072C-83.0934 -28.9129 -78.6443 -31.4918 -72.0525 -35.5045C-71.5675 -35.7981 -71.0609 -36.116 -70.5376 -36.4442C-65.6895 -39.4852 -59.4201 -43.4176 -55.8152 -37.294C-55.9046 -37.4486 -55.4837 -38.9757 -54.9593 -40.8786C-54.1732 -43.7309 -53.1544 -47.4274 -53.2725 -48.6116C-53.5095 -50.8069 -54.455 -52.7278 -55.3905 -54.6283C-55.7778 -55.415 -56.1634 -56.1982 -56.4962 -56.996C-56.6831 -57.443 -56.8721 -57.905 -57.065 -58.3765C-59.4713 -64.2574 -62.4779 -71.6059 -69.3201 -69.6708Z" fill="#FFE2CC"/>
</g>
<defs>
<clipPath id="clip0_209_6975">
<rect width="1360" height="844" fill="white"/>
</clipPath>
</defs>
</svg>
