<svg width="48" height="48" viewBox="0 0 48 48" fill="none" xmlns="http://www.w3.org/2000/svg">
<path fill-rule="evenodd" clip-rule="evenodd" d="M10.5858 10.5858C10.9609 10.2107 11.4696 10 12 10H30C31.1046 10 32 9.10457 32 8C32 6.89543 31.1046 6 30 6H12C10.4087 6 8.88258 6.63214 7.75736 7.75736C6.63214 8.88258 6 10.4087 6 12V36C6 37.5913 6.63214 39.1174 7.75736 40.2426C8.88258 41.3679 10.4087 42 12 42H36C37.5913 42 39.1174 41.3679 40.2426 40.2426C41.3679 39.1174 42 37.5913 42 36V24C42 22.8954 41.1046 22 40 22C38.8954 22 38 22.8954 38 24V36C38 36.5304 37.7893 37.0391 37.4142 37.4142C37.0391 37.7893 36.5304 38 36 38H12C11.4696 38 10.9609 37.7893 10.5858 37.4142C10.2107 37.0391 10 36.5304 10 36V12C10 11.4696 10.2107 10.9609 10.5858 10.5858ZM25.4142 29.4142L41.4142 13.4142C42.1953 12.6332 42.1953 11.3668 41.4142 10.5858C40.6332 9.80474 39.3668 9.80474 38.5858 10.5858L24 25.1716L19.4142 20.5858C18.6332 19.8047 17.3668 19.8047 16.5858 20.5858C15.8047 21.3668 15.8047 22.6332 16.5858 23.4142L22.5858 29.4142C23.3668 30.1953 24.6332 30.1953 25.4142 29.4142Z" fill="#FF8526"/>
</svg>
