<svg width="117" height="117" viewBox="0 0 117 117" fill="none" xmlns="http://www.w3.org/2000/svg">
<path d="M61.3954 113.383L61.3369 113.393L60.9907 113.563L60.8933 113.583L60.825 113.563L60.4789 113.388C60.4269 113.375 60.3879 113.384 60.3619 113.417L60.3424 113.466L60.2595 115.552L60.2839 115.65L60.3326 115.713L60.8396 116.074L60.9128 116.093L60.9713 116.074L61.4783 115.713L61.5368 115.635L61.5563 115.552L61.4734 113.47C61.4604 113.418 61.4344 113.389 61.3954 113.383ZM62.6824 112.832L62.6141 112.842L61.7171 113.295L61.6684 113.344L61.6538 113.397L61.7415 115.494L61.7659 115.552L61.8049 115.591L62.7848 116.04C62.8465 116.056 62.8936 116.043 62.9261 116.001L62.9456 115.932L62.7799 112.939C62.7636 112.877 62.7311 112.842 62.6824 112.832ZM59.1968 112.842C59.1753 112.829 59.1496 112.824 59.1251 112.83C59.1005 112.835 59.0791 112.85 59.0651 112.871L59.0359 112.939L58.8701 115.932C58.8734 115.991 58.901 116.03 58.953 116.049L59.0261 116.04L60.006 115.586L60.0548 115.547L60.0694 115.494L60.1571 113.397L60.1425 113.339L60.0938 113.29L59.1968 112.842Z" fill="#FFE2CC"/>
<path d="M58.4996 9.75001C62.2522 9.74704 65.9796 10.3631 69.5317 11.5733C66.1656 15.0533 64.0452 19.5492 63.5012 24.3602C62.9571 29.1712 64.0199 34.0271 66.524 38.1709C69.028 42.3148 72.8325 45.5139 77.3447 47.2696C81.8568 49.0253 86.823 49.239 91.4693 47.8774L92.6246 47.4971V61.0691C92.6253 61.6344 92.7243 62.1953 92.9171 62.7266L93.1414 63.2483L101.507 79.9841C101.895 80.7592 102.089 81.6168 102.072 82.4833C102.056 83.3498 101.83 84.1994 101.414 84.9595C100.997 85.7195 100.403 86.3673 99.6811 86.8473C98.9596 87.3274 98.1324 87.6254 97.2705 87.7159L96.7099 87.7451H20.2894C19.4224 87.7454 18.5683 87.5354 17.8003 87.1333C17.0323 86.7311 16.3732 86.1488 15.8795 85.4361C15.3859 84.7234 15.0724 83.9017 14.9659 83.0413C14.8594 82.1809 14.9631 81.3075 15.2681 80.496L15.4924 79.9841L23.8628 63.2483C24.1143 62.7421 24.276 62.1961 24.3405 61.6346L24.3746 61.074V43.875C24.3746 34.8245 27.9699 26.1447 34.3696 19.745C40.7693 13.3453 49.4491 9.75001 58.4996 9.75001ZM85.3121 14.625C88.5445 14.625 91.6444 15.909 93.93 18.1946C96.2156 20.4802 97.4996 23.5802 97.4996 26.8125C97.4996 30.0448 96.2156 33.1448 93.93 35.4304C91.6444 37.716 88.5445 39 85.3121 39C82.0798 39 78.9799 37.716 76.6943 35.4304C74.4087 33.1448 73.1246 30.0448 73.1246 26.8125C73.1246 23.5802 74.4087 20.4802 76.6943 18.1946C78.9799 15.909 82.0798 14.625 85.3121 14.625ZM58.4996 102.375C55.4739 102.377 52.5223 101.44 50.0513 99.6935C47.5804 97.9473 45.7119 95.4776 44.7034 92.625H72.2959C71.2873 95.4776 69.4188 97.9473 66.9479 99.6935C64.477 101.44 61.5253 102.377 58.4996 102.375Z" fill="#FFE2CC"/>
</svg>
