<svg width="117" height="117" viewBox="0 0 117 117" fill="none" xmlns="http://www.w3.org/2000/svg">
<g clip-path="url(#clip0_374_338)">
<path d="M72.4222 15.7722C63.5887 0.474482 44.0204 -4.77589 28.7227 4.05761C13.4249 12.8911 8.17455 32.4594 17.008 47.7717C25.8415 63.0695 45.4098 68.3199 60.7075 59.4864C76.0053 50.6529 81.2557 31.0846 72.4222 15.7869V15.7722ZM55.5303 50.492C45.205 56.459 31.9548 52.9051 25.9878 42.5799C20.0208 32.2546 23.5747 19.0044 33.8999 13.0374C44.2252 7.07036 57.4754 10.6242 63.4424 20.9495C69.4094 31.2747 65.8555 44.525 55.5303 50.492Z" fill="#FFE2CC"/>
<path d="M62.9147 52.9304L53.9348 58.115L60.7939 69.9953L69.7738 64.8108L62.9147 52.9304Z" fill="#FFE2CC"/>
<path d="M91.8734 104.239L83.9467 108.816C81.6798 110.133 78.7694 109.343 77.4678 107.076L57.3145 72.1955C55.9983 69.9286 56.788 67.0182 59.0549 65.7166L66.9817 61.139C69.2485 59.8227 72.1589 60.6125 73.4605 62.8794L93.6138 97.76C94.93 100.027 94.1403 102.937 91.8734 104.239Z" fill="#FFE2CC"/>
</g>
<defs>
<clipPath id="clip0_374_338">
<rect width="117" height="117" fill="white"/>
</clipPath>
</defs>
</svg>
