<svg width="117" height="117" viewBox="0 0 117 117" fill="none" xmlns="http://www.w3.org/2000/svg">
<path fill-rule="evenodd" clip-rule="evenodd" d="M87.0901 26.809C92.5277 26.809 96.9357 22.4009 96.9357 16.9633C96.9357 11.5257 92.5277 7.11768 87.0901 7.11768C81.6525 7.11768 77.2444 11.5257 77.2444 16.9633C77.2444 22.4009 81.6525 26.809 87.0901 26.809ZM60.5882 31.2018C57.1677 34.7972 54.13 41.4955 57.4889 55.0052C57.7789 56.1717 57.2963 57.3935 56.2875 58.047C55.2787 58.7004 53.9663 58.6412 53.0205 57.8996C48.0849 54.0301 41.2279 53.4608 34.5353 55.0507C27.8039 56.6499 21.9891 60.264 19.3859 63.7349L14.8821 60.3571C18.4972 55.537 25.637 51.3783 33.2341 49.5734C38.8802 48.2321 45.1878 48.0988 50.832 50.2688C49.2734 39.0205 52.1629 31.8902 56.5094 27.3214C58.9633 24.7421 61.7233 23.1545 63.9373 22.104C64.8635 21.6645 65.7263 21.3051 66.4015 21.0239L66.4025 21.0235C66.5266 20.9718 66.6444 20.9227 66.755 20.8763C67.3073 20.6445 67.5751 20.5171 67.6841 20.4652L67.6842 20.4652L67.6842 20.4652C67.7497 20.434 67.7578 20.4302 67.7358 20.4474L71.2064 24.8801C70.5604 25.3859 69.6256 25.7775 69.0087 26.0359L68.9333 26.0675C68.8043 26.1216 68.6736 26.1761 68.5411 26.2314L68.541 26.2314C67.8661 26.5128 67.1433 26.8141 66.3506 27.1903C64.4738 28.0807 62.387 29.3111 60.5882 31.2018ZM102.118 41.4812H75.1718V68.4271H102.118V41.4812ZM46.1529 61.1725H75.1716V89.1549H46.1529V61.1725ZM19.2066 82.9366H46.1526V109.883H19.2066V82.9366Z" fill="#FFE2CC"/>
</svg>
