<svg width="117" height="117" viewBox="0 0 117 117" fill="none" xmlns="http://www.w3.org/2000/svg">
<g clip-path="url(#clip0_403_462)">
<path d="M32.2077 15C14.5044 15 0.216402 29.0475 0.00189614 46.6718C-0.0801758 53.4671 1.96043 59.7852 5.50631 65.0056C6.0976 65.8785 6.33263 66.9426 6.15916 67.9808L4.65015 76.9991C4.47668 78.0335 5.3944 78.9212 6.42776 78.7188L17.6586 76.5292C18.4606 76.3732 19.2907 76.4642 20.048 76.7725C23.868 78.3251 28.0556 79.1664 32.4446 79.1348C50.2001 79.0066 64.4153 64.7456 64.4153 47.0674C64.4153 29.3576 49.9968 15 32.2077 15ZM16.7334 50.635C14.7543 50.635 13.1521 49.0378 13.1521 47.0693C13.1521 45.1007 14.7562 43.5035 16.7334 43.5035C18.7106 43.5035 20.3147 45.1007 20.3147 47.0693C20.3147 49.0378 18.7106 50.635 16.7334 50.635ZM32.2077 50.635C30.2286 50.635 28.6264 49.0378 28.6264 47.0693C28.6264 45.1007 30.2305 43.5035 32.2077 43.5035C34.1849 43.5035 35.789 45.1007 35.789 47.0693C35.789 49.0378 34.1849 50.635 32.2077 50.635ZM47.682 50.635C45.7029 50.635 44.1006 49.0378 44.1006 47.0693C44.1006 45.1007 45.7048 43.5035 47.682 43.5035C49.6592 43.5035 51.2633 45.1007 51.2633 47.0693C51.2633 49.0378 49.6592 50.635 47.682 50.635Z" fill="#FFB67D"/>
<path d="M80.8408 90.8441C80.6674 89.8059 80.9024 88.7418 81.4937 87.8689C85.0396 82.6484 87.0802 76.3304 86.9981 69.5351C86.8358 56.2045 78.623 44.9242 66.9707 40.2163C67.4109 42.4337 67.644 44.7236 67.644 47.0673C67.644 56.4719 63.9993 65.3064 57.3813 71.9457C50.7615 78.585 41.9145 82.2789 32.4706 82.3476H32.2095C29.6802 82.3476 27.19 82.0857 24.7559 81.5657C29.3836 93.4738 40.9278 101.9 54.5573 101.998C58.9463 102.03 63.132 101.187 66.9539 99.6358C67.7112 99.3275 68.5394 99.2365 69.3433 99.3925L80.5741 101.582C81.6075 101.783 82.5252 100.895 82.3517 99.8624L80.8427 90.8441H80.8408Z" fill="#FFE2CC"/>
</g>
<defs>
<clipPath id="clip0_403_462">
<rect width="117" height="117" fill="white"/>
</clipPath>
</defs>
</svg>
